<?xml version="1.0" encoding="UTF-8"?>
<svg width="954px" height="182px" viewBox="0 0 954 182" version="1.1" xmlns="http://www.w3.org/2000/svg" xmlns:xlink="http://www.w3.org/1999/xlink">
    <!-- Generator: Sketch 59.1 (86144) - https://sketch.com -->
    <title>logo</title>
    <desc>Created with Sketch.</desc>
    <defs>
        <path d="M3.48216276,2.453125 C4.91435127,2.453125 5.91861473,2.71353906 6.49498328,3.234375 C7.07135182,3.75521094 7.35953177,4.62325781 7.35953177,5.83854167 L7.35953177,30.6302083 C11.8656859,24.901013 17.402234,22.0364583 23.9693423,22.0364583 C28.3008392,22.0364583 32.1694367,23.0520732 35.5752508,25.0833333 C38.981065,27.1145935 41.653279,30.031231 43.5919732,33.8333333 C45.5306674,37.6354357 46.5,42.1058771 46.5,47.2447917 C46.5,52.3837063 45.5306674,56.8541477 43.5919732,60.65625 C41.653279,64.4583523 38.981065,67.3749898 35.5752508,69.40625 C32.1694367,71.4375102 28.3008392,72.453125 23.9693423,72.453125 C20.5460624,72.453125 17.3848157,71.6892437 14.4855072,70.1614583 C11.5861988,68.6336729 9.03624289,66.4461948 6.83556299,63.5989583 L6.83556299,68.4427083 C6.83556299,69.6579922 6.57358122,70.5260391 6.04960981,71.046875 C5.55646025,71.5370735 4.69201062,71.7965869 3.45623732,71.8254217 L3.11538462,71.828125 C1.75305896,71.828125 0.809924582,71.5677109 0.285953177,71.046875 C-0.238018227,70.5260391 -0.5,69.6579922 -0.5,68.4427083 L-0.5,5.83854167 C-0.5,4.62325781 -0.21182005,3.75521094 0.364548495,3.234375 C0.907013008,2.74417647 1.82851246,2.48466306 3.12907198,2.45582826 L3.48216276,2.453125 Z M23.5489039,29.453125 C20.4471458,29.453125 17.6852285,30.1475625 15.2630691,31.5364583 C12.8409098,32.9253542 10.9415471,34.9392229 9.56492411,37.578125 C8.18830116,40.2170271 7.5,43.3419958 7.5,46.953125 C7.5,50.5642542 8.18830116,53.6892229 9.56492411,56.328125 C10.9415471,58.9670271 12.8409098,60.9808958 15.2630691,62.3697917 C17.6852285,63.7586875 20.4471458,64.453125 23.5489039,64.453125 C26.6506619,64.453125 29.3254525,63.7152852 31.5733558,62.2395833 C33.8212591,60.7638815 35.5376557,58.6979299 36.722597,56.0416667 C37.9075382,53.3854034 38.5,50.3559198 38.5,46.953125 C38.5,43.5503302 37.9075382,40.5208466 36.722597,37.8645833 C35.5376557,35.2083201 33.8212591,33.1423685 31.5733558,31.6666667 C29.3254525,30.1909648 26.6506619,29.453125 23.5489039,29.453125 Z M103.633017,22.453125 C105.061369,22.453125 106.062942,22.7146287 106.637767,23.2376438 C107.212592,23.760659 107.5,24.6323379 107.5,25.8527066 L107.5,68.4259283 C107.5,69.6462971 107.23872,70.5179759 106.716152,71.0409911 C106.224323,71.5332407 105.362189,71.7938399 104.129726,71.8227954 L103.789786,71.8255099 C102.43111,71.8255099 101.490501,71.5640063 100.967933,71.0409911 C100.445366,70.5179759 100.184086,69.6462971 100.184086,68.4259283 L100.184086,59.9008237 C97.8151109,63.5619299 94.801681,66.569222 91.1437055,68.9227903 C87.4857299,71.2763585 83.7929719,72.453125 80.0653207,72.453125 C74.8048035,72.453125 70.7288347,70.9364038 67.8372922,67.9029158 C64.9457496,64.8694278 63.5,60.7028028 63.5,55.4029158 L63.5,25.8527066 C63.5,24.6323379 63.7874081,23.760659 64.3622328,23.2376438 C64.9032443,22.7453943 65.8222755,22.484795 67.1193514,22.4558396 L67.4714964,22.453125 C68.8998488,22.453125 69.9014223,22.7146287 70.476247,23.2376438 C71.0510718,23.760659 71.3384798,24.6323379 71.3384798,25.8527066 L71.3384798,54.618397 C71.3384798,57.756488 72.1136106,60.2233392 73.6638955,62.0190246 C75.2141804,63.81471 77.6092475,64.7125392 80.8491686,64.7125392 C83.8452248,64.7125392 86.7976893,63.7624093 89.7066508,61.8621208 C92.6156123,59.9618324 95.0019701,57.3816629 96.8657957,54.121535 C98.7296214,50.8614072 99.6615202,47.3136742 99.6615202,43.4782296 L99.6615202,25.8527066 C99.6615202,24.6323379 99.9489282,23.760659 100.523753,23.2376438 C101.064764,22.7453943 101.983796,22.484795 103.280872,22.4558396 L103.633017,22.453125 Z M149.5,-0.546875 C151.429834,-0.546875 152.745611,-0.286621192 153.447368,0.233894231 C154.149126,0.754409654 154.5,1.66081085 154.5,2.953125 L154.5,9.953125 C154.5,11.2454392 154.149126,12.1518403 153.447368,12.6723558 C152.745611,13.1928712 151.429834,13.453125 149.5,13.453125 C147.570166,13.453125 146.254389,13.1928712 145.552632,12.6723558 C144.850874,12.1518403 144.5,11.2454392 144.5,9.953125 L144.5,2.953125 C144.5,1.66081085 144.850874,0.754409654 145.552632,0.233894231 C146.254389,-0.286621192 147.570166,-0.546875 149.5,-0.546875 Z M151.413187,22.453125 C152.583889,22.453125 153.418862,22.7215206 153.918132,23.2583198 C154.417402,23.795119 154.667033,24.7042008 154.667033,25.9855925 L154.667033,62.9726055 L171.246154,62.9726055 C172.416856,62.9726055 173.251829,63.2583169 173.751099,63.8297484 C174.250369,64.4011798 174.5,65.3622092 174.5,66.7128653 C174.5,68.0635214 174.250369,69.0245507 173.751099,69.5959821 C173.251829,70.1674136 172.416856,70.453125 171.246154,70.453125 L130.753846,70.453125 C129.583144,70.453125 128.748171,70.1674136 128.248901,69.5959821 C127.749631,69.0245507 127.5,68.0635214 127.5,66.7128653 C127.5,65.3622092 127.749631,64.4011798 128.248901,63.8297484 C128.748171,63.2583169 129.583144,62.9726055 130.753846,62.9726055 L146.91978,62.9726055 L146.91978,29.9336445 L133.852747,29.9336445 C132.682045,29.9336445 131.847072,29.6479331 131.347802,29.0765016 C130.848532,28.5050702 130.598901,27.5440408 130.598901,26.1933847 C130.598901,24.8427286 130.848532,23.8816993 131.347802,23.3102679 C131.847072,22.7388364 132.682045,22.453125 133.852747,22.453125 L151.413187,22.453125 Z M235.246154,62.9897104 C236.416856,62.9897104 237.251829,63.2747685 237.751099,63.8448933 C238.250369,64.4150181 238.5,65.37385 238.5,66.7214177 C238.5,68.0689854 238.250369,69.0278173 237.751099,69.5979421 C237.251829,70.1680669 236.416856,70.453125 235.246154,70.453125 L194.753846,70.453125 C193.583144,70.453125 192.748171,70.1680669 192.248901,69.5979421 C191.749631,69.0278173 191.5,68.0689854 191.5,66.7214177 C191.5,65.37385 191.749631,64.4150181 192.248901,63.8448933 C192.748171,63.2747685 193.583144,62.9897104 194.753846,62.9897104 L210.91978,62.9897104 L210.91978,9.91653963 L196.81978,9.91653963 C195.649078,9.91653963 194.814105,9.63148151 194.314835,9.06135671 C193.815565,8.49123191 193.565934,7.53240003 193.565934,6.18483232 C193.565934,4.8372646 193.815565,3.87843273 194.314835,3.30830793 C194.814105,2.73818312 195.649078,2.453125 196.81978,2.453125 L215.413187,2.453125 C216.583889,2.453125 217.418862,2.72090687 217.918132,3.25647866 C218.417402,3.79205044 218.667033,4.69905357 218.667033,5.97751524 L218.667033,62.9897104 L235.246154,62.9897104 Z M295.622631,2.453125 C297.054819,2.453125 298.059083,2.71353906 298.635452,3.234375 C299.21182,3.75521094 299.5,4.62325781 299.5,5.83854167 L299.5,68.4427083 C299.5,69.6579922 299.238018,70.5260391 298.714047,71.046875 C298.220897,71.5370735 297.356448,71.7965869 296.120674,71.8254217 L295.779822,71.828125 C294.417496,71.828125 293.474362,71.5677109 292.95039,71.046875 C292.426419,70.5260391 292.164437,69.6579922 292.164437,68.4427083 L292.164437,63.5989583 C289.963757,66.4461948 287.413801,68.6336729 284.514493,70.1614583 C281.615184,71.6892437 278.453938,72.453125 275.030658,72.453125 C270.699161,72.453125 266.830563,71.4375102 263.424749,69.40625 C260.018935,67.3749898 257.346721,64.4583523 255.408027,60.65625 C253.469333,56.8541477 252.5,52.3837063 252.5,47.2447917 C252.5,42.1058771 253.469333,37.6354357 255.408027,33.8333333 C257.346721,30.031231 260.018935,27.1145935 263.424749,25.0833333 C266.830563,23.0520732 270.699161,22.0364583 275.030658,22.0364583 C281.597766,22.0364583 287.134314,24.901013 291.640468,30.6302083 L291.640468,5.83854167 C291.640468,4.62325781 291.928648,3.75521094 292.505017,3.234375 C293.047481,2.74417647 293.968981,2.48466306 295.26954,2.45582826 L295.622631,2.453125 Z M275.451096,29.453125 C272.349338,29.453125 269.674547,30.1909648 267.426644,31.6666667 C265.178741,33.1423685 263.462344,35.2083201 262.277403,37.8645833 C261.092462,40.5208466 260.5,43.5503302 260.5,46.953125 C260.5,50.3559198 261.092462,53.3854034 262.277403,56.0416667 C263.462344,58.6979299 265.178741,60.7638815 267.426644,62.2395833 C269.674547,63.7152852 272.349338,64.453125 275.451096,64.453125 C278.552854,64.453125 281.314771,63.7586875 283.736931,62.3697917 C286.15909,60.9808958 288.058453,58.9670271 289.435076,56.328125 C290.811699,53.6892229 291.5,50.5642542 291.5,46.953125 C291.5,43.3419958 290.811699,40.2170271 289.435076,37.578125 C288.058453,34.9392229 286.15909,32.9253542 283.736931,31.5364583 C281.314771,30.1475625 278.552854,29.453125 275.451096,29.453125 Z M339.08324,8.453125 C347.310469,8.453125 354.487306,10.1861161 360.613966,13.6521502 C361.874308,14.3800173 362.504469,15.3504923 362.504469,16.5636043 C362.504469,17.2625843 362.313257,18.0343709 361.930828,18.8789747 L361.821788,19.1111266 C361.121598,20.670842 360.158852,21.450688 358.93352,21.450688 C358.408377,21.450688 357.830726,21.2773889 357.200559,20.9307854 C351.809098,17.742034 345.770052,16.1476823 339.08324,16.1476823 C334.917111,16.1476823 331.67003,17.0661675 329.341899,18.9031656 C327.013769,20.7401637 325.849721,23.2530007 325.849721,26.4417521 C325.849721,27.8281658 326.191058,29.0065997 326.873743,29.9770893 C327.556428,30.9475788 328.562936,31.7620846 329.893296,32.4206311 C331.118628,33.0445172 332.527739,33.5470846 334.12067,33.9283484 L334.572249,34.034048 C336.13465,34.3921083 338.268465,34.8074539 340.973743,35.2800949 L341.967333,35.4502782 C344.402242,35.8730371 346.469167,36.2755534 348.168156,36.6578366 C350.093678,37.0910909 351.931649,37.654313 353.682123,38.3475198 C357.078043,39.6992731 359.729972,41.6228932 361.637989,44.1184378 C363.546006,46.6139823 364.5,50.0106448 364.5,54.3085271 C364.5,57.9478629 363.633528,61.1279015 361.900559,63.8487383 C360.167589,66.5695751 357.576926,68.6838242 354.128492,70.191549 C350.680057,71.6992739 346.435221,72.453125 341.393855,72.453125 C337.402773,72.453125 333.499274,71.9245627 329.68324,70.8674223 C325.867206,69.8102819 322.401319,68.3285746 319.285475,66.4222558 C318.095152,65.6943886 317.5,64.7412435 317.5,63.5627919 C317.5,62.7656041 317.745063,61.8991086 318.235196,60.9632793 C319.040414,59.4382243 320.00316,58.6757083 321.123464,58.6757083 C321.718625,58.6757083 322.313777,58.8663373 322.908939,59.247601 C325.53465,60.9112974 328.449146,62.2457005 331.652514,63.2508504 C334.855882,64.2560003 338.102963,64.7585677 341.393855,64.7585677 C346.330192,64.7585677 350.067399,63.8140876 352.605587,61.925099 C355.143774,60.0361104 356.412849,57.4972785 356.412849,54.3085271 C356.412849,52.159586 355.861458,50.409265 354.758659,49.0575117 C353.65586,47.7057584 352.089209,46.5966441 350.058659,45.7301356 C348.693289,45.1409098 347.222913,44.6643372 345.647486,44.3004036 L345.130782,44.1834612 C343.701702,43.8662385 341.863,43.5060059 339.614637,43.1027559 L338.170693,42.8442262 C335.677636,42.3908847 333.566193,41.9577861 331.836313,41.5449203 C329.875782,41.0770057 328.055316,40.4617939 326.37486,39.6992663 C323.64412,38.4861544 321.526078,36.822483 320.02067,34.7082022 C318.515262,32.5939214 317.76257,29.8384656 317.76257,26.4417521 C317.76257,22.7330956 318.655298,19.5270622 320.440782,16.8235555 C322.226266,14.1200489 324.729407,12.0491246 327.950279,10.6107205 C331.171152,9.17231629 334.882102,8.453125 339.08324,8.453125 Z M431.370504,22.66233 C432.483219,22.8715361 433.282971,23.1940573 433.769784,23.6299032 C434.256597,24.0657492 434.5,24.6497741 434.5,25.3819953 C434.5,25.7887849 434.451706,26.207676 434.355116,26.6386775 L423.911871,69.0535434 C423.598919,70.3087798 423.138192,71.1891755 422.529676,71.6947568 C421.92116,72.2003381 420.956242,72.453125 419.634892,72.453125 C418.139681,72.453125 416.974824,72.1829046 416.140288,71.6424555 C415.305751,71.1020065 414.697244,70.2390445 414.314748,69.0535434 L405.5,42.2753007 L396.685252,69.0535434 C396.302756,70.2390445 395.694249,71.1020065 394.859712,71.6424555 C394.025176,72.1829046 392.860319,72.453125 391.365108,72.453125 C390.043758,72.453125 389.07884,72.2003381 388.470324,71.6947568 C387.861808,71.1891755 387.401081,70.3087798 387.088129,69.0535434 L376.708633,26.8987317 C376.569544,26.3757165 376.5,25.8701428 376.5,25.3819953 C376.5,24.6497741 376.743403,24.0657492 377.230216,23.6299032 C377.717029,23.1940573 378.516781,22.8715361 379.629496,22.66233 C380.220626,22.5228593 380.794362,22.453125 381.350719,22.453125 C382.150484,22.453125 382.767684,22.6623279 383.202338,23.0807401 C383.603558,23.4669666 383.90848,24.0760076 384.117114,24.9078789 L392.460432,60.3192338 L401.588129,32.4426647 C402.144487,30.8038839 403.448431,29.9845058 405.5,29.9845058 C407.551569,29.9845058 408.855513,30.8038839 409.411871,32.4426647 L418.539568,60.3192338 L426.832734,25.120489 C427.041368,24.1790617 427.363007,23.4991522 427.797662,23.0807401 C428.232316,22.6623279 428.849516,22.453125 429.649281,22.453125 C430.205638,22.453125 430.779374,22.5228593 431.370504,22.66233 Z M469.5,-0.546875 C471.429834,-0.546875 472.745611,-0.286621192 473.447368,0.233894231 C474.149126,0.754409654 474.5,1.66081085 474.5,2.953125 L474.5,9.953125 C474.5,11.2454392 474.149126,12.1518403 473.447368,12.6723558 C472.745611,13.1928712 471.429834,13.453125 469.5,13.453125 C467.570166,13.453125 466.254389,13.1928712 465.552632,12.6723558 C464.850874,12.1518403 464.5,11.2454392 464.5,9.953125 L464.5,2.953125 C464.5,1.66081085 464.850874,0.754409654 465.552632,0.233894231 C466.254389,-0.286621192 467.570166,-0.546875 469.5,-0.546875 Z M471.413187,22.453125 C472.583889,22.453125 473.418862,22.7215206 473.918132,23.2583198 C474.417402,23.795119 474.667033,24.7042008 474.667033,25.9855925 L474.667033,62.9726055 L491.246154,62.9726055 C492.416856,62.9726055 493.251829,63.2583169 493.751099,63.8297484 C494.250369,64.4011798 494.5,65.3622092 494.5,66.7128653 C494.5,68.0635214 494.250369,69.0245507 493.751099,69.5959821 C493.251829,70.1674136 492.416856,70.453125 491.246154,70.453125 L450.753846,70.453125 C449.583144,70.453125 448.748171,70.1674136 448.248901,69.5959821 C447.749631,69.0245507 447.5,68.0635214 447.5,66.7128653 C447.5,65.3622092 447.749631,64.4011798 448.248901,63.8297484 C448.748171,63.2583169 449.583144,62.9726055 450.753846,62.9726055 L466.91978,62.9726055 L466.91978,29.9336445 L453.852747,29.9336445 C452.682045,29.9336445 451.847072,29.6479331 451.347802,29.0765016 C450.848532,28.5050702 450.598901,27.5440408 450.598901,26.1933847 C450.598901,24.8427286 450.848532,23.8816993 451.347802,23.3102679 C451.847072,22.7388364 452.682045,22.453125 453.852747,22.453125 L471.413187,22.453125 Z M555.965517,5.10497127 C557.655181,5.76360305 558.5,6.89019314 558.5,8.48477534 C558.5,8.76209398 558.431035,9.24739433 558.293103,9.94069094 C557.810342,11.8819214 556.9138,12.8525221 555.603448,12.8525221 C555.293102,12.8525221 554.913795,12.7658614 554.465517,12.5925372 C550.086185,10.8939605 546.000019,10.0446849 542.206897,10.0446849 C535.241344,10.0446849 531.758621,13.8057626 531.758621,21.3280308 L531.758621,27.0476992 L549.655172,27.0476992 C550.827592,27.0476992 551.663791,27.3336798 552.163793,27.9056495 C552.663796,28.4776192 552.913793,29.4395538 552.913793,30.7914822 C552.913793,32.1434106 552.663796,33.1053452 552.163793,33.6773149 C551.663791,34.2492846 550.827592,34.5352652 549.655172,34.5352652 L531.758621,34.5352652 L531.758621,68.0733209 C531.758621,69.28659 531.474141,70.1531978 530.905172,70.6731702 C530.369673,71.1625561 529.460005,71.4216392 528.176144,71.4504262 L527.827586,71.453125 C526.413786,71.453125 525.422417,71.1931427 524.853448,70.6731702 C524.28448,70.1531978 524,69.28659 524,68.0733209 L524,34.5352652 L513.758621,34.5352652 C512.586201,34.5352652 511.750002,34.2492846 511.25,33.6773149 C510.749998,33.1053452 510.5,32.1434106 510.5,30.7914822 C510.5,29.4395538 510.749998,28.4776192 511.25,27.9056495 C511.750002,27.3336798 512.586201,27.0476992 513.758621,27.0476992 L524,27.0476992 L524,20.65207 C524,14.932373 525.594812,10.469343 528.784483,7.26284618 C531.974154,4.05634936 536.448247,2.453125 542.206897,2.453125 C546.827609,2.453125 551.41377,3.33706492 555.965517,5.10497127 Z M620.822778,61.5871624 C621.274262,62.4883312 621.5,63.2681772 621.5,63.9267237 C621.5,64.9803981 620.982842,65.8463745 619.948512,66.5246762 L619.780899,66.6302168 C617.071999,68.3285735 614.050578,69.7236313 610.716547,70.8154321 C607.382517,71.9072328 604.274274,72.453125 601.391726,72.453125 C595.487713,72.453125 591.172639,70.9194279 588.446374,67.8519877 C585.720109,64.7845475 584.356997,60.2007862 584.356997,54.1005661 L584.356997,34.9161632 L573.78192,34.9161632 C572.601118,34.9161632 571.75894,34.6302197 571.255363,34.058324 C570.751785,33.4864284 570.5,32.5246184 570.5,31.172865 C570.5,29.8211117 570.751785,28.8593017 571.255363,28.2874061 C571.75894,27.7155104 572.601118,27.4295669 573.78192,27.4295669 L584.356997,27.4295669 L584.356997,11.8324914 C584.356997,10.6193794 584.652193,9.7528839 585.242594,9.23297878 C585.832996,8.71307366 586.840136,8.453125 588.264045,8.453125 C589.687954,8.453125 590.695094,8.71307366 591.285495,9.23297878 C591.875897,9.7528839 592.171093,10.6193794 592.171093,11.8324914 L592.171093,27.4295669 L613.581716,27.4295669 C614.762519,27.4295669 615.604696,27.7155104 616.108274,28.2874061 C616.611851,28.8593017 616.863636,29.8211117 616.863636,31.172865 C616.863636,32.5246184 616.611851,33.4864284 616.108274,34.058324 C615.604696,34.6302197 614.762519,34.9161632 613.581716,34.9161632 L592.171093,34.9161632 L592.171093,53.4246928 C592.171093,57.3759717 592.865672,60.2700668 594.254852,62.1070649 C595.644031,63.944063 598.022966,64.8625482 601.391726,64.8625482 C603.718602,64.8625482 606.166994,64.3946406 608.736977,63.4588114 C611.306959,62.5229822 613.79008,61.2752287 616.186415,59.7155133 C616.672628,59.3689099 617.210927,59.1956108 617.801328,59.1956108 C618.982131,59.1956108 619.989271,59.9927867 620.822778,61.5871624 Z M661,8.453125 C666.458043,8.453125 671.268745,9.77886316 675.432252,12.4303793 C679.595759,15.0818954 682.814556,18.833821 685.08874,23.6862688 C687.362925,28.5387166 688.5,34.1362777 688.5,40.4791201 C688.5,46.8219626 687.362925,52.4108587 685.08874,57.2459763 C682.814556,62.0810939 679.595759,65.8243546 675.432252,68.4758707 C671.268745,71.1273868 666.458043,72.453125 661,72.453125 C655.541957,72.453125 650.731255,71.1273868 646.567748,68.4758707 C642.404241,65.8243546 639.185444,62.0810939 636.91126,57.2459763 C634.637075,52.4108587 633.5,46.8219626 633.5,40.4791201 C633.5,34.1362777 634.637075,28.5387166 636.91126,23.6862688 C639.185444,18.833821 642.404241,15.0818954 646.567748,12.4303793 C650.731255,9.77886316 655.541957,8.453125 661,8.453125 Z M660.5,15.453125 C656.699981,15.453125 653.362177,16.4401027 650.486486,18.4140876 C647.610796,20.3880725 645.394152,23.226725 643.836486,26.9301303 C642.278821,30.6335357 641.5,34.9832248 641.5,39.9793282 C641.5,44.9754316 642.278821,49.3163864 643.836486,53.0023229 C645.394152,56.6882593 647.602238,59.5181775 650.460811,61.4921624 C653.319384,63.4661473 656.665747,64.453125 660.5,64.453125 C664.334253,64.453125 667.680616,63.4661473 670.539189,61.4921624 C673.397762,59.5181775 675.605848,56.6882593 677.163514,53.0023229 C678.721179,49.3163864 679.5,44.9754316 679.5,39.9793282 C679.5,34.9832248 678.721179,30.6335357 677.163514,26.9301303 C675.605848,23.226725 673.389204,20.3880725 670.513514,18.4140876 C667.637823,16.4401027 664.300019,15.453125 660.5,15.453125 Z M730.934679,21.453125 C736.195197,21.453125 740.271165,22.9698462 743.162708,26.0033342 C746.05425,29.0368222 747.5,33.2034472 747.5,38.5033342 L747.5,68.0535434 C747.5,69.2739121 747.212592,70.145591 746.637767,70.6686062 C746.096756,71.1608557 745.177725,71.421455 743.880649,71.4504104 L743.528504,71.453125 C742.100151,71.453125 741.098578,71.1916213 740.523753,70.6686062 C739.948928,70.145591 739.66152,69.2739121 739.66152,68.0535434 L739.66152,39.287853 C739.66152,36.149762 738.886389,33.6829108 737.336105,31.8872254 C735.78582,30.09154 733.390753,29.1937108 730.150831,29.1937108 C727.154775,29.1937108 724.202311,30.1438407 721.293349,32.0441292 C718.384388,33.9444176 715.99803,36.5245871 714.134204,39.784715 C712.270379,43.0448428 711.33848,46.5925758 711.33848,50.4280204 L711.33848,68.0535434 C711.33848,69.2739121 711.051072,70.145591 710.476247,70.6686062 C709.935236,71.1608557 709.016204,71.421455 707.719128,71.4504104 L707.366983,71.453125 C705.938631,71.453125 704.937058,71.1916213 704.362233,70.6686062 C703.787408,70.145591 703.5,69.2739121 703.5,68.0535434 L703.5,25.4803217 C703.5,24.2599529 703.76128,23.3882741 704.283848,22.8652589 C704.775677,22.3730093 705.637811,22.1124101 706.870274,22.0834546 L707.210214,22.0807401 C708.56889,22.0807401 709.509499,22.3422437 710.032067,22.8652589 C710.554634,23.3882741 710.815914,24.2599529 710.815914,25.4803217 L710.815914,34.0054263 C713.184889,30.3443201 716.198319,27.337028 719.856295,24.9834597 C723.51427,22.6298915 727.207028,21.453125 730.934679,21.453125 Z" id="path-1"></path>
        <path d="M826.189453,66.5179322 C826.396485,67.14796 826.5,67.6904757 826.5,68.1454958 C826.5,68.8105251 826.267092,69.3705414 825.80127,69.8255614 C825.335447,70.2805815 824.584966,70.6830932 823.549805,71.0331086 C822.652665,71.3131209 821.962568,71.453125 821.479492,71.453125 C820.789385,71.453125 820.220054,71.2606194 819.771484,70.8756024 C819.322914,70.4905855 818.960613,69.8780677 818.68457,69.0380307 L813.042969,53.6024277 L786.957031,53.6024277 L781.31543,69.0380307 C781.039387,69.8780677 780.677086,70.4905855 780.228516,70.8756024 C779.779946,71.2606194 779.210615,71.453125 778.520508,71.453125 C778.037432,71.453125 777.347335,71.3131209 776.450195,71.0331086 C775.415034,70.6830932 774.664553,70.2805815 774.19873,69.8255614 C773.732908,69.3705414 773.5,68.8105251 773.5,68.1454958 C773.5,67.6904757 773.603515,67.14796 773.810547,66.5179322 L794.203125,10.8657583 C794.651695,9.64070433 795.32454,8.7656789 796.22168,8.24065576 C797.11882,7.71563263 798.378247,7.453125 800,7.453125 C801.621753,7.453125 802.88118,7.71563263 803.77832,8.24065576 C804.67546,8.7656789 805.348305,9.64070433 805.796875,10.8657583 L826.189453,66.5179322 Z M789.5,46.453125 L810.5,46.453125 L800.131579,16.453125 L799.921053,16.453125 L789.5,46.453125 Z M885.777641,67.0546225 C886.259216,67.8233451 886.5,68.487232 886.5,69.046303 C886.5,69.5704321 886.302213,70.0421412 885.906634,70.4614445 C885.511055,70.8807477 884.900496,71.282574 884.074939,71.6669353 C882.871001,72.1910644 881.976661,72.453125 881.391892,72.453125 C880.46314,72.453125 879.689192,71.9639452 879.070025,70.9855709 L863.694103,46.875754 L852.239558,46.875754 L852.239558,68.7842398 C852.239558,70.0072077 851.955777,70.880743 851.388206,71.4048721 C850.854022,71.89817 849.94659,72.1593243 848.665883,72.1883414 L848.318182,72.1910618 C846.907855,72.1910618 845.918922,71.9290012 845.351351,71.4048721 C844.783781,70.880743 844.5,70.0072077 844.5,68.7842398 L844.5,13.0171849 C844.5,11.7243332 844.749383,10.8071211 845.248157,10.265521 C845.746931,9.72392096 846.581075,9.453125 847.750614,9.453125 L864.364865,9.453125 C868.939826,9.453125 872.818166,10.2305715 876,11.7854877 C879.181834,13.340404 881.581073,15.5242424 883.197789,18.3370684 C884.814504,21.1498945 885.62285,24.4605935 885.62285,28.2692648 C885.62285,32.8117168 884.479127,36.6115956 882.191646,39.6690152 C879.904165,42.7264348 876.55899,44.831655 872.15602,45.984739 L885.777641,67.0546225 Z M851.5,38.453125 L862.786004,38.453125 C872.595384,38.453125 877.5,34.8209235 877.5,27.5564114 C877.5,23.9069409 876.278241,21.1440577 873.834686,19.267679 C871.39113,17.3913003 867.708273,16.453125 862.786004,16.453125 L851.5,16.453125 L851.5,38.453125 Z M947.012609,8.453125 C948.301016,8.453125 949.267306,8.70540085 949.911509,9.20996013 C950.555713,9.7145194 950.89522,10.5931353 950.930042,11.8458342 L952.497015,68.0604158 C952.531837,69.2783175 952.261972,70.1482342 951.687412,70.6701921 C951.14665,71.1614466 950.228043,71.421519 948.931565,71.4504159 L948.579582,71.453125 C947.151888,71.453125 946.159482,71.19215 945.602333,70.6701921 C945.045184,70.1482342 944.749203,69.2783175 944.714381,68.0604158 L943.6175,25.6254531 L932.805385,48.9046577 C932.248236,50.1225594 931.604042,50.983777 930.872784,51.4883363 C930.141526,51.9928955 929.183941,52.2451714 928,52.2451714 C926.816059,52.2451714 925.858474,51.9928955 925.127216,51.4883363 C924.395958,50.983777 923.751764,50.1225594 923.194615,48.9046577 L912.3825,25.6254531 L911.285619,68.0604158 C911.250797,69.2783175 910.954816,70.1482342 910.397667,70.6701921 C909.873292,71.1614466 908.963359,71.421519 907.667845,71.4504159 L907.315953,71.453125 C905.888259,71.453125 904.887147,71.19215 904.312588,70.6701921 C903.738028,70.1482342 903.468163,69.2783175 903.502985,68.0604158 L905.069958,11.8458342 C905.10478,10.5931353 905.452993,9.7145194 906.114607,9.20996013 C906.776221,8.70540085 907.751217,8.453125 909.039624,8.453125 L909.144088,8.453125 C910.362852,8.453125 911.363963,8.72279919 912.147454,9.26215565 C912.930944,9.80151212 913.601254,10.6627297 914.158403,11.8458342 L928,41.5972841 L941.841597,11.8458342 C942.398746,10.6627297 943.077761,9.80151212 943.878662,9.26215565 C944.679564,8.72279919 945.689381,8.453125 946.908144,8.453125 L947.012609,8.453125 Z" id="path-2"></path>
        <linearGradient x1="0%" y1="49.9929369%" x2="100%" y2="49.9929369%" id="linearGradient-3">
            <stop stop-color="#22BFD8" offset="0%"></stop>
            <stop stop-color="#1DB8D4" offset="28%"></stop>
            <stop stop-color="#0FA6C9" offset="67%"></stop>
            <stop stop-color="#0091BD" offset="100%"></stop>
        </linearGradient>
        <linearGradient x1="0%" y1="50%" x2="99.9917837%" y2="50%" id="linearGradient-4">
            <stop stop-color="#008FBE" offset="0%"></stop>
            <stop stop-color="#0095C2" offset="26%"></stop>
            <stop stop-color="#00A5CC" offset="61%"></stop>
            <stop stop-color="#00C1DE" offset="100%"></stop>
            <stop stop-color="#00C1DE" offset="100%"></stop>
        </linearGradient>
    </defs>
    <g id="Page-1" stroke="none" stroke-width="1" fill="none" fill-rule="evenodd">
        <g id="logo" transform="translate(1.000000, 1.000000)">
            <path d="M625.550781,90.8203125 L620.941406,90.8203125 C620.720051,90.8203125 620.531251,90.7942711 620.375,90.7421875 C620.218749,90.6901039 620.091797,90.5924486 619.994141,90.4492188 C619.896484,90.3059889 619.82487,90.104168 619.779297,89.84375 C619.733724,89.583332 619.710938,89.2447937 619.710938,88.828125 C619.710938,88.4114563 619.733724,88.072918 619.779297,87.8125 C619.82487,87.552082 619.896484,87.347006 619.994141,87.1972656 C620.091797,87.0475253 620.218749,86.9466148 620.375,86.8945312 C620.531251,86.8424477 620.720051,86.8164062 620.941406,86.8164062 L635.042969,86.8164062 C635.264324,86.8164062 635.453124,86.8424477 635.609375,86.8945312 C635.765626,86.9466148 635.892578,87.0475253 635.990234,87.1972656 C636.087891,87.347006 636.159505,87.552082 636.205078,87.8125 C636.250651,88.072918 636.273438,88.4114563 636.273438,88.828125 C636.273438,89.2447937 636.250651,89.583332 636.205078,89.84375 C636.159505,90.104168 636.087891,90.3059889 635.990234,90.4492188 C635.892578,90.5924486 635.765626,90.6901039 635.609375,90.7421875 C635.453124,90.7942711 635.264324,90.8203125 635.042969,90.8203125 L630.433594,90.8203125 L630.433594,105.996094 L635.433594,105.996094 C635.654949,105.996094 635.843749,106.022135 636,106.074219 C636.156251,106.126302 636.283203,106.227213 636.380859,106.376953 C636.478516,106.526693 636.55013,106.73177 636.595703,106.992188 C636.641276,107.252605 636.664062,107.591144 636.664062,108.007812 C636.664062,108.424481 636.641276,108.76302 636.595703,109.023438 C636.55013,109.283855 636.478516,109.485676 636.380859,109.628906 C636.283203,109.772136 636.156251,109.869791 636,109.921875 C635.843749,109.973959 635.654949,110 635.433594,110 L620.550781,110 C620.329426,110 620.140626,109.973959 619.984375,109.921875 C619.828124,109.869791 619.701172,109.772136 619.603516,109.628906 C619.505859,109.485676 619.434245,109.283855 619.388672,109.023438 C619.343099,108.76302 619.320312,108.424481 619.320312,108.007812 C619.320312,107.591144 619.343099,107.252605 619.388672,106.992188 C619.434245,106.73177 619.505859,106.526693 619.603516,106.376953 C619.701172,106.227213 619.828124,106.126302 619.984375,106.074219 C620.140626,106.022135 620.329426,105.996094 620.550781,105.996094 L625.550781,105.996094 L625.550781,90.8203125 Z M644.222656,95.9570312 L642.328125,95.9570312 C642.10677,95.9570312 641.91797,95.9309898 641.761719,95.8789062 C641.605468,95.8268227 641.478516,95.7291674 641.380859,95.5859375 C641.283203,95.4427076 641.211589,95.2408867 641.166016,94.9804688 C641.120442,94.7200508 641.097656,94.3815125 641.097656,93.9648438 C641.097656,93.548175 641.120442,93.2096367 641.166016,92.9492188 C641.211589,92.6888008 641.283203,92.4837247 641.380859,92.3339844 C641.478516,92.184244 641.605468,92.0833336 641.761719,92.03125 C641.91797,91.9791664 642.10677,91.953125 642.328125,91.953125 L647.09375,91.953125 C647.536461,91.953125 647.852213,92.0475251 648.041016,92.2363281 C648.229819,92.4251312 648.324219,92.7408832 648.324219,93.1835938 L648.324219,96.015625 C649.235682,94.4270754 650.231765,93.2812535 651.3125,92.578125 C652.393235,91.8749965 653.545567,91.5234375 654.769531,91.5234375 C655.667973,91.5234375 656.481767,91.6731756 657.210938,91.9726562 C657.940108,92.2721369 658.558591,92.6953098 659.066406,93.2421875 C659.574221,93.7890652 659.968098,94.4563763 660.248047,95.2441406 C660.527996,96.031905 660.667969,96.9140576 660.667969,97.890625 L660.667969,105.996094 L662.171875,105.996094 C662.39323,105.996094 662.58203,106.022135 662.738281,106.074219 C662.894532,106.126302 663.021484,106.227213 663.119141,106.376953 C663.216797,106.526693 663.288411,106.73177 663.333984,106.992188 C663.379558,107.252605 663.402344,107.591144 663.402344,108.007812 C663.402344,108.424481 663.379558,108.76302 663.333984,109.023438 C663.288411,109.283855 663.216797,109.485676 663.119141,109.628906 C663.021484,109.772136 662.894532,109.869791 662.738281,109.921875 C662.58203,109.973959 662.39323,110 662.171875,110 L654.867188,110 C654.645832,110 654.457032,109.973959 654.300781,109.921875 C654.14453,109.869791 654.017579,109.772136 653.919922,109.628906 C653.822265,109.485676 653.750651,109.283855 653.705078,109.023438 C653.659505,108.76302 653.636719,108.424481 653.636719,108.007812 C653.636719,107.591144 653.659505,107.252605 653.705078,106.992188 C653.750651,106.73177 653.822265,106.526693 653.919922,106.376953 C654.017579,106.227213 654.14453,106.126302 654.300781,106.074219 C654.457032,106.022135 654.645832,105.996094 654.867188,105.996094 L655.785156,105.996094 L655.785156,99.0429688 C655.785156,98.0794223 655.619142,97.3242215 655.287109,96.7773438 C654.955076,96.230466 654.359379,95.9570312 653.5,95.9570312 C652.91406,95.9570312 652.357425,96.1425763 651.830078,96.5136719 C651.302732,96.8847675 650.837242,97.3828094 650.433594,98.0078125 C650.029946,98.6328156 649.707683,99.361975 649.466797,100.195312 C649.22591,101.02865 649.105469,101.901037 649.105469,102.8125 L649.105469,105.996094 L650.023438,105.996094 C650.244793,105.996094 650.433593,106.022135 650.589844,106.074219 C650.746095,106.126302 650.873046,106.227213 650.970703,106.376953 C651.06836,106.526693 651.139974,106.73177 651.185547,106.992188 C651.23112,107.252605 651.253906,107.591144 651.253906,108.007812 C651.253906,108.424481 651.23112,108.76302 651.185547,109.023438 C651.139974,109.283855 651.06836,109.485676 650.970703,109.628906 C650.873046,109.772136 650.746095,109.869791 650.589844,109.921875 C650.433593,109.973959 650.244793,110 650.023438,110 L642.71875,110 C642.497395,110 642.308595,109.973959 642.152344,109.921875 C641.996093,109.869791 641.869141,109.772136 641.771484,109.628906 C641.673828,109.485676 641.602214,109.283855 641.556641,109.023438 C641.511067,108.76302 641.488281,108.424481 641.488281,108.007812 C641.488281,107.591144 641.511067,107.252605 641.556641,106.992188 C641.602214,106.73177 641.673828,106.526693 641.771484,106.376953 C641.869141,106.227213 641.996093,106.126302 642.152344,106.074219 C642.308595,106.022135 642.497395,105.996094 642.71875,105.996094 L644.222656,105.996094 L644.222656,95.9570312 Z M672.035156,105.996094 L672.035156,97.3242188 L668.460938,97.3242188 C668.239582,97.3242188 668.050782,97.291667 667.894531,97.2265625 C667.73828,97.161458 667.611329,97.050782 667.513672,96.8945312 C667.416015,96.7382805 667.344401,96.526694 667.298828,96.2597656 C667.253255,95.9928372 667.230469,95.6510437 667.230469,95.234375 C667.230469,94.8177063 667.253255,94.4726576 667.298828,94.1992188 C667.344401,93.9257799 667.416015,93.7109383 667.513672,93.5546875 C667.611329,93.3984367 667.73828,93.2877607 667.894531,93.2226562 C668.050782,93.1575518 668.239582,93.125 668.460938,93.125 L672.035156,93.125 L672.035156,91.6992188 C672.035156,89.2512898 672.627598,87.40235 673.8125,86.1523438 C674.997402,84.9023375 676.729155,84.2773438 679.007812,84.2773438 C679.932296,84.2773438 680.886063,84.3619783 681.869141,84.53125 C682.852218,84.7005217 683.877599,84.9869771 684.945312,85.390625 C685.166668,85.4687504 685.352213,85.572916 685.501953,85.703125 C685.651693,85.833334 685.762369,85.9993479 685.833984,86.2011719 C685.905599,86.4029958 685.931641,86.647134 685.912109,86.9335938 C685.892578,87.2200535 685.83073,87.5651021 685.726562,87.96875 C685.622395,88.359377 685.501954,88.6718738 685.365234,88.90625 C685.228515,89.1406262 685.075522,89.3098953 684.90625,89.4140625 C684.736978,89.5182297 684.557944,89.5703125 684.369141,89.5703125 C684.180338,89.5703125 683.981772,89.5377607 683.773438,89.4726562 C682.9401,89.2122383 682.175134,89.0201829 681.478516,88.8964844 C680.781898,88.7727858 680.101566,88.7109375 679.4375,88.7109375 C678.630204,88.7109375 678.008466,88.9680964 677.572266,89.4824219 C677.136066,89.9967474 676.917969,90.8203068 676.917969,91.953125 L676.917969,93.125 L682.992188,93.125 C683.213543,93.125 683.402343,93.1575518 683.558594,93.2226562 C683.714845,93.2877607 683.841796,93.3984367 683.939453,93.5546875 C684.03711,93.7109383 684.108724,93.9257799 684.154297,94.1992188 C684.19987,94.4726576 684.222656,94.8177063 684.222656,95.234375 C684.222656,95.6510437 684.19987,95.9928372 684.154297,96.2597656 C684.108724,96.526694 684.03711,96.7382805 683.939453,96.8945312 C683.841796,97.050782 683.714845,97.161458 683.558594,97.2265625 C683.402343,97.291667 683.213543,97.3242188 682.992188,97.3242188 L676.917969,97.3242188 L676.917969,105.996094 L682.40625,105.996094 C682.627605,105.996094 682.816405,106.022135 682.972656,106.074219 C683.128907,106.126302 683.255859,106.227213 683.353516,106.376953 C683.451172,106.526693 683.522786,106.73177 683.568359,106.992188 C683.613933,107.252605 683.636719,107.591144 683.636719,108.007812 C683.636719,108.424481 683.613933,108.76302 683.568359,109.023438 C683.522786,109.283855 683.451172,109.485676 683.353516,109.628906 C683.255859,109.772136 683.128907,109.869791 682.972656,109.921875 C682.816405,109.973959 682.627605,110 682.40625,110 L668.460938,110 C668.239582,110 668.050782,109.973959 667.894531,109.921875 C667.73828,109.869791 667.611329,109.772136 667.513672,109.628906 C667.416015,109.485676 667.344401,109.283855 667.298828,109.023438 C667.253255,108.76302 667.230469,108.424481 667.230469,108.007812 C667.230469,107.591144 667.253255,107.252605 667.298828,106.992188 C667.344401,106.73177 667.416015,106.526693 667.513672,106.376953 C667.611329,106.227213 667.73828,106.126302 667.894531,106.074219 C668.050782,106.022135 668.239582,105.996094 668.460938,105.996094 L672.035156,105.996094 Z M694.535156,95.9570312 L692.25,95.9570312 C692.028645,95.9570312 691.839845,95.9309898 691.683594,95.8789062 C691.527343,95.8268227 691.400391,95.7291674 691.302734,95.5859375 C691.205078,95.4427076 691.133464,95.2408867 691.087891,94.9804688 C691.042317,94.7200508 691.019531,94.3815125 691.019531,93.9648438 C691.019531,93.548175 691.042317,93.2096367 691.087891,92.9492188 C691.133464,92.6888008 691.205078,92.4837247 691.302734,92.3339844 C691.400391,92.184244 691.527343,92.0833336 691.683594,92.03125 C691.839845,91.9791664 692.028645,91.953125 692.25,91.953125 L697.601562,91.953125 C698.044273,91.953125 698.360025,92.0475251 698.548828,92.2363281 C698.737631,92.4251312 698.832031,92.7408832 698.832031,93.1835938 L698.832031,97.421875 C699.82162,95.5208238 700.94791,94.0625051 702.210938,93.046875 C703.473965,92.0312449 704.756504,91.5234375 706.058594,91.5234375 C707.16537,91.5234375 708.207026,91.8880172 709.183594,92.6171875 C709.665367,92.9817727 709.945312,93.414711 710.023438,93.9160156 C710.101563,94.4173202 709.990887,95.0390588 709.691406,95.78125 C709.378905,96.5755248 709.020835,97.0996081 708.617188,97.3535156 C708.21354,97.6074231 707.803388,97.623699 707.386719,97.4023438 C707.009113,97.1940094 706.631512,97.0410161 706.253906,96.9433594 C705.8763,96.8457026 705.4987,96.796875 705.121094,96.796875 C704.365882,96.796875 703.646488,96.9791648 702.962891,97.34375 C702.279293,97.7083352 701.673831,98.2161426 701.146484,98.8671875 C700.619138,99.5182324 700.19922,100.292964 699.886719,101.191406 C699.574217,102.089848 699.417969,103.072911 699.417969,104.140625 L699.417969,105.996094 L705.023438,105.996094 C705.244793,105.996094 705.433594,106.022135 705.589844,106.074219 C705.746095,106.126302 705.873046,106.227213 705.970703,106.376953 C706.06836,106.526693 706.139974,106.73177 706.185547,106.992188 C706.23112,107.252605 706.253906,107.591144 706.253906,108.007812 C706.253906,108.424481 706.23112,108.76302 706.185547,109.023438 C706.139974,109.283855 706.06836,109.485676 705.970703,109.628906 C705.873046,109.772136 705.746095,109.869791 705.589844,109.921875 C705.433594,109.973959 705.244793,110 705.023438,110 L691.664062,110 C691.442707,110 691.253907,109.973959 691.097656,109.921875 C690.941405,109.869791 690.814454,109.772136 690.716797,109.628906 C690.61914,109.485676 690.547526,109.283855 690.501953,109.023438 C690.45638,108.76302 690.433594,108.424481 690.433594,108.007812 C690.433594,107.591144 690.45638,107.252605 690.501953,106.992188 C690.547526,106.73177 690.61914,106.526693 690.716797,106.376953 C690.814454,106.227213 690.941405,106.126302 691.097656,106.074219 C691.253907,106.022135 691.442707,105.996094 691.664062,105.996094 L694.535156,105.996094 L694.535156,95.9570312 Z M727.992188,107.929688 C726.989578,108.710941 725.918625,109.322914 724.779297,109.765625 C723.639968,110.208336 722.445319,110.429688 721.195312,110.429688 C720.075515,110.429688 719.076176,110.28646 718.197266,110 C717.318355,109.71354 716.57292,109.300133 715.960938,108.759766 C715.348955,108.219398 714.883465,107.568363 714.564453,106.806641 C714.245441,106.044918 714.085938,105.188807 714.085938,104.238281 C714.085938,103.326818 714.251951,102.513024 714.583984,101.796875 C714.916017,101.080726 715.397783,100.478518 716.029297,99.9902344 C716.66081,99.5019507 717.429032,99.1308606 718.333984,98.8769531 C719.238937,98.6230456 720.270828,98.4960938 721.429688,98.4960938 C723.161467,98.4960938 725.003896,98.6914043 726.957031,99.0820312 L726.957031,98.515625 C726.957031,98.1119771 726.891928,97.7506526 726.761719,97.4316406 C726.63151,97.1126286 726.419923,96.842449 726.126953,96.6210938 C725.833983,96.3997385 725.443362,96.2337245 724.955078,96.1230469 C724.466794,96.0123692 723.871097,95.9570312 723.167969,95.9570312 C722.386715,95.9570312 721.533859,96.0546865 720.609375,96.25 C719.684891,96.4453135 718.773442,96.6927068 717.875,96.9921875 C717.666666,97.057292 717.471355,97.0930989 717.289062,97.0996094 C717.10677,97.1061198 716.93099,97.0605474 716.761719,96.9628906 C716.592447,96.8652339 716.429688,96.7024751 716.273438,96.4746094 C716.117187,96.2467437 715.967449,95.937502 715.824219,95.546875 C715.537759,94.7656211 715.440104,94.1666687 715.53125,93.75 C715.622396,93.3333313 715.895831,93.0403654 716.351562,92.8710938 C716.963545,92.6497385 717.591794,92.4544279 718.236328,92.2851562 C718.880863,92.1158846 719.518877,91.975912 720.150391,91.8652344 C720.781904,91.7545567 721.400388,91.6699222 722.005859,91.6113281 C722.611331,91.5527341 723.180987,91.5234375 723.714844,91.5234375 C725.199226,91.5234375 726.458979,91.6894515 727.494141,92.0214844 C728.529302,92.3535173 729.369137,92.8320281 730.013672,93.4570312 C730.658206,94.0820344 731.123696,94.8372352 731.410156,95.7226562 C731.696616,96.6080773 731.839844,97.5976508 731.839844,98.6914062 L731.839844,104.335938 C731.839844,104.856773 731.95052,105.26367 732.171875,105.556641 C732.39323,105.849611 732.712237,105.996094 733.128906,105.996094 L733.734375,105.996094 C733.95573,105.996094 734.14453,106.022135 734.300781,106.074219 C734.457032,106.126302 734.583984,106.227213 734.681641,106.376953 C734.779297,106.526693 734.850911,106.73177 734.896484,106.992188 C734.942058,107.252605 734.964844,107.591144 734.964844,108.007812 C734.964844,108.424481 734.942058,108.76302 734.896484,109.023438 C734.850911,109.283855 734.779297,109.485676 734.681641,109.628906 C734.583984,109.772136 734.457032,109.869791 734.300781,109.921875 C734.14453,109.973959 733.95573,110 733.734375,110 L731.546875,110 C730.765621,110 730.062503,109.840496 729.4375,109.521484 C728.812497,109.202472 728.330731,108.671879 727.992188,107.929688 Z M726.957031,103.046875 C726.045568,102.864582 725.176436,102.73112 724.349609,102.646484 C723.522782,102.561849 722.712244,102.519531 721.917969,102.519531 C720.993485,102.519531 720.296877,102.68229 719.828125,103.007812 C719.359373,103.333335 719.125,103.808591 719.125,104.433594 C719.125,105.058597 719.356117,105.527342 719.818359,105.839844 C720.280601,106.152345 720.947912,106.308594 721.820312,106.308594 C722.757817,106.308594 723.662756,106.123049 724.535156,105.751953 C725.407556,105.380858 726.21484,104.895836 726.957031,104.296875 L726.957031,103.046875 Z M744.007812,109.199219 C744.007812,109.641929 743.819012,109.957681 743.441406,110.146484 C743.0638,110.335287 742.458337,110.429688 741.625,110.429688 C740.791663,110.429688 740.199221,110.335287 739.847656,110.146484 C739.496092,109.957681 739.320312,109.641929 739.320312,109.199219 L739.320312,104.84375 C739.320312,104.401039 739.473306,104.085287 739.779297,103.896484 C740.085288,103.707681 740.557288,103.613281 741.195312,103.613281 C741.625,103.613281 741.966796,103.658854 742.220703,103.75 C742.474611,103.841146 742.673176,103.977864 742.816406,104.160156 C743.519535,105.032556 744.385412,105.644529 745.414062,105.996094 C746.442713,106.347658 747.523432,106.523438 748.65625,106.523438 C749.750005,106.523438 750.544268,106.383465 751.039062,106.103516 C751.533857,105.823566 751.78125,105.42318 751.78125,104.902344 C751.78125,104.5638 751.625,104.296876 751.3125,104.101562 C750.999998,103.906249 750.576826,103.750001 750.042969,103.632812 C749.615883,103.539062 749.138803,103.457813 748.61172,103.389063 L748.207031,103.339844 C747.516924,103.261718 746.800785,103.164063 746.058594,103.046875 C745.316403,102.929687 744.580733,102.776694 743.851562,102.587891 C743.122392,102.399088 742.445316,102.135418 741.820312,101.796875 C741.039059,101.367185 740.394534,100.781254 739.886719,100.039062 C739.378904,99.2968713 739.125,98.3203186 739.125,97.109375 C739.125,96.2369748 739.304035,95.4557326 739.662109,94.765625 C740.020184,94.0755174 740.514971,93.4895857 741.146484,93.0078125 C741.777998,92.5260393 742.526688,92.1582044 743.392578,91.9042969 C744.258468,91.6503894 745.192703,91.5234375 746.195312,91.5234375 C747.250005,91.5234375 748.203772,91.6471342 749.056641,91.8945312 C749.909509,92.1419283 750.700517,92.4934873 751.429688,92.9492188 L751.429688,92.7539062 C751.429688,92.3111957 751.585936,91.9954437 751.898438,91.8066406 C752.210939,91.6178376 752.78385,91.5234375 753.617188,91.5234375 C754.450525,91.5234375 755.042967,91.6178376 755.394531,91.8066406 C755.746096,91.9954437 755.921875,92.3111957 755.921875,92.7539062 L755.921875,96.875 C755.921875,97.3177105 755.781902,97.6334626 755.501953,97.8222656 C755.222004,98.0110687 754.763024,98.1054688 754.125,98.1054688 C753.434892,98.1054688 752.959637,97.9687514 752.699219,97.6953125 C751.891923,96.8489541 750.986984,96.2597673 749.984375,95.9277344 C748.981766,95.5957015 747.861985,95.4296875 746.625,95.4296875 C745.830725,95.4296875 745.222007,95.5696601 744.798828,95.8496094 C744.375649,96.1295587 744.164062,96.4908832 744.164062,96.9335938 C744.164062,97.2330744 744.29427,97.4772126 744.554688,97.6660156 C744.815105,97.8548187 745.166664,98.0013016 745.609375,98.1054688 C746.091148,98.2226568 746.651038,98.3138018 747.289062,98.3789062 L748.272949,98.4838867 C748.609862,98.5213215 748.955727,98.5611977 749.310547,98.6035156 C750.020186,98.6881515 750.736325,98.8020826 751.458984,98.9453125 C752.181644,99.0885424 752.861976,99.2903633 753.5,99.5507812 C753.968752,99.7460947 754.408201,99.9837226 754.818359,100.263672 C755.228518,100.543621 755.580077,100.878904 755.873047,101.269531 C756.166017,101.660158 756.397135,102.112628 756.566406,102.626953 C756.735678,103.141279 756.820312,103.730465 756.820312,104.394531 C756.820312,105.319015 756.651043,106.15234 756.3125,106.894531 C755.973957,107.636722 755.47266,108.271482 754.808594,108.798828 C754.144528,109.326175 753.330734,109.729816 752.367188,110.009766 C751.403641,110.289715 750.296881,110.429688 749.046875,110.429688 C748.031245,110.429688 747.113285,110.302736 746.292969,110.048828 C745.472652,109.794921 744.710941,109.459637 744.007812,109.042969 L744.007812,109.199219 Z M763.03125,97.3242188 C762.809895,97.3242188 762.621095,97.291667 762.464844,97.2265625 C762.308593,97.161458 762.181641,97.050782 762.083984,96.8945312 C761.986328,96.7382805 761.914714,96.526694 761.869141,96.2597656 C761.823567,95.9928372 761.800781,95.6510437 761.800781,95.234375 C761.800781,94.8177063 761.823567,94.4726576 761.869141,94.1992188 C761.914714,93.9257799 761.986328,93.7109383 762.083984,93.5546875 C762.181641,93.3984367 762.308593,93.2877607 762.464844,93.2226562 C762.621095,93.1575518 762.809895,93.125 763.03125,93.125 L766.800781,93.125 L766.800781,87.6171875 C766.800781,87.174477 766.996092,86.8587249 767.386719,86.6699219 C767.777346,86.4811188 768.441402,86.3867188 769.378906,86.3867188 C769.847659,86.3867188 770.228514,86.409505 770.521484,86.4550781 C770.814455,86.5006513 771.048827,86.5722651 771.224609,86.6699219 C771.400392,86.7675786 771.520833,86.8945305 771.585938,87.0507812 C771.651042,87.207032 771.683594,87.3958322 771.683594,87.6171875 L771.683594,93.125 L778.929688,93.125 C779.151043,93.125 779.339843,93.1575518 779.496094,93.2226562 C779.652345,93.2877607 779.779296,93.3984367 779.876953,93.5546875 C779.97461,93.7109383 780.046224,93.9257799 780.091797,94.1992188 C780.13737,94.4726576 780.160156,94.8177063 780.160156,95.234375 C780.160156,95.6510437 780.13737,95.9928372 780.091797,96.2597656 C780.046224,96.526694 779.97461,96.7382805 779.876953,96.8945312 C779.779296,97.050782 779.652345,97.161458 779.496094,97.2265625 C779.339843,97.291667 779.151043,97.3242188 778.929688,97.3242188 L771.683594,97.3242188 L771.683594,102.753906 C771.683594,103.886719 771.901691,104.710284 772.337891,105.224609 C772.774091,105.738935 773.395829,105.996094 774.203125,105.996094 C774.528647,105.996094 774.889972,105.953776 775.287109,105.869141 C775.684247,105.784505 776.091144,105.670574 776.507812,105.527344 C776.924481,105.384114 777.354164,105.221355 777.796875,105.039062 C778.239586,104.85677 778.675779,104.66797 779.105469,104.472656 C779.300781,104.38151 779.492838,104.326172 779.681641,104.306641 C779.870444,104.287109 780.052733,104.319661 780.228516,104.404297 C780.404298,104.488933 780.573567,104.638671 780.736328,104.853516 C780.899089,105.06836 781.058593,105.371092 781.214844,105.761719 C781.527345,106.529952 781.634766,107.109373 781.537109,107.5 C781.439453,107.890627 781.175783,108.190103 780.746094,108.398438 C779.561192,108.997399 778.386074,109.485675 777.220703,109.863281 C776.055333,110.240887 774.906256,110.429688 773.773438,110.429688 C771.49478,110.429688 769.763027,109.804694 768.578125,108.554688 C767.393223,107.304681 766.800781,105.455741 766.800781,103.007812 L766.800781,97.3242188 L763.03125,97.3242188 Z M790.472656,95.9570312 L788.1875,95.9570312 C787.966145,95.9570312 787.777345,95.9309898 787.621094,95.8789062 C787.464843,95.8268227 787.337891,95.7291674 787.240234,95.5859375 C787.142578,95.4427076 787.070964,95.2408867 787.025391,94.9804688 C786.979817,94.7200508 786.957031,94.3815125 786.957031,93.9648438 C786.957031,93.548175 786.979817,93.2096367 787.025391,92.9492188 C787.070964,92.6888008 787.142578,92.4837247 787.240234,92.3339844 C787.337891,92.184244 787.464843,92.0833336 787.621094,92.03125 C787.777345,91.9791664 787.966145,91.953125 788.1875,91.953125 L793.539062,91.953125 C793.981773,91.953125 794.297525,92.0475251 794.486328,92.2363281 C794.675131,92.4251312 794.769531,92.7408832 794.769531,93.1835938 L794.769531,97.421875 C795.75912,95.5208238 796.88541,94.0625051 798.148438,93.046875 C799.411465,92.0312449 800.694004,91.5234375 801.996094,91.5234375 C803.10287,91.5234375 804.144526,91.8880172 805.121094,92.6171875 C805.602867,92.9817727 805.882812,93.414711 805.960938,93.9160156 C806.039063,94.4173202 805.928387,95.0390588 805.628906,95.78125 C805.316405,96.5755248 804.958335,97.0996081 804.554688,97.3535156 C804.15104,97.6074231 803.740888,97.623699 803.324219,97.4023438 C802.946613,97.1940094 802.569012,97.0410161 802.191406,96.9433594 C801.8138,96.8457026 801.4362,96.796875 801.058594,96.796875 C800.303382,96.796875 799.583988,96.9791648 798.900391,97.34375 C798.216793,97.7083352 797.611331,98.2161426 797.083984,98.8671875 C796.556638,99.5182324 796.13672,100.292964 795.824219,101.191406 C795.511717,102.089848 795.355469,103.072911 795.355469,104.140625 L795.355469,105.996094 L800.960938,105.996094 C801.182293,105.996094 801.371094,106.022135 801.527344,106.074219 C801.683595,106.126302 801.810546,106.227213 801.908203,106.376953 C802.00586,106.526693 802.077474,106.73177 802.123047,106.992188 C802.16862,107.252605 802.191406,107.591144 802.191406,108.007812 C802.191406,108.424481 802.16862,108.76302 802.123047,109.023438 C802.077474,109.283855 802.00586,109.485676 801.908203,109.628906 C801.810546,109.772136 801.683595,109.869791 801.527344,109.921875 C801.371094,109.973959 801.182293,110 800.960938,110 L787.601562,110 C787.380207,110 787.191407,109.973959 787.035156,109.921875 C786.878905,109.869791 786.751954,109.772136 786.654297,109.628906 C786.55664,109.485676 786.485026,109.283855 786.439453,109.023438 C786.39388,108.76302 786.371094,108.424481 786.371094,108.007812 C786.371094,107.591144 786.39388,107.252605 786.439453,106.992188 C786.485026,106.73177 786.55664,106.526693 786.654297,106.376953 C786.751954,106.227213 786.878905,106.126302 787.035156,106.074219 C787.191407,106.022135 787.380207,105.996094 787.601562,105.996094 L790.472656,105.996094 L790.472656,95.9570312 Z M810.082031,95.9570312 C809.860676,95.9570312 809.671876,95.9309898 809.515625,95.8789062 C809.359374,95.8268227 809.232422,95.7259122 809.134766,95.5761719 C809.037109,95.4264315 808.965495,95.2213555 808.919922,94.9609375 C808.874349,94.7005195 808.851562,94.3619812 808.851562,93.9453125 C808.851562,93.5286438 808.874349,93.1901055 808.919922,92.9296875 C808.965495,92.6692695 809.037109,92.4674486 809.134766,92.3242188 C809.232422,92.1809889 809.359374,92.0833336 809.515625,92.03125 C809.671876,91.9791664 809.860676,91.953125 810.082031,91.953125 L815.238281,91.953125 C815.680992,91.953125 815.996744,92.0475251 816.185547,92.2363281 C816.37435,92.4251312 816.46875,92.7408832 816.46875,93.1835938 L816.46875,102.910156 C816.46875,103.873703 816.634764,104.628904 816.966797,105.175781 C817.29883,105.722659 817.894527,105.996094 818.753906,105.996094 C819.339847,105.996094 819.896482,105.810549 820.423828,105.439453 C820.951175,105.068358 821.416665,104.570316 821.820312,103.945312 C822.22396,103.320309 822.546223,102.594405 822.787109,101.767578 C823.027996,100.940751 823.148438,100.065109 823.148438,99.140625 L823.148438,95.9570312 L821.058594,95.9570312 C820.837238,95.9570312 820.648438,95.9309898 820.492188,95.8789062 C820.335937,95.8268227 820.208985,95.7259122 820.111328,95.5761719 C820.013671,95.4264315 819.942058,95.2213555 819.896484,94.9609375 C819.850911,94.7005195 819.828125,94.3619812 819.828125,93.9453125 C819.828125,93.5286438 819.850911,93.1901055 819.896484,92.9296875 C819.942058,92.6692695 820.013671,92.4674486 820.111328,92.3242188 C820.208985,92.1809889 820.335937,92.0833336 820.492188,92.03125 C820.648438,91.9791664 820.837238,91.953125 821.058594,91.953125 L826.800781,91.953125 C827.243492,91.953125 827.559244,92.0475251 827.748047,92.2363281 C827.93685,92.4251312 828.03125,92.7408832 828.03125,93.1835938 L828.03125,105.996094 L829.535156,105.996094 C829.756512,105.996094 829.945312,106.022135 830.101562,106.074219 C830.257813,106.126302 830.384765,106.223958 830.482422,106.367188 C830.580079,106.510417 830.651692,106.712238 830.697266,106.972656 C830.742839,107.233074 830.765625,107.571613 830.765625,107.988281 C830.765625,108.40495 830.742839,108.743488 830.697266,109.003906 C830.651692,109.264324 830.580079,109.4694 830.482422,109.619141 C830.384765,109.768881 830.257813,109.869791 830.101562,109.921875 C829.945312,109.973959 829.756512,110 829.535156,110 L825.160156,110 C824.717446,110 824.401694,109.9056 824.212891,109.716797 C824.024088,109.527994 823.929688,109.212242 823.929688,108.769531 L823.929688,105.9375 C823.018225,107.52605 822.022141,108.671871 820.941406,109.375 C819.860672,110.078129 818.708339,110.429688 817.484375,110.429688 C816.585933,110.429688 815.772139,110.279949 815.042969,109.980469 C814.313798,109.680988 813.695315,109.257815 813.1875,108.710938 C812.679685,108.16406 812.285809,107.496749 812.005859,106.708984 C811.72591,105.92122 811.585938,105.039067 811.585938,104.0625 L811.585938,95.9570312 L810.082031,95.9570312 Z M850.375,104.160156 C850.752606,103.938801 851.130206,103.916015 851.507812,104.091797 C851.885419,104.267579 852.236978,104.739579 852.5625,105.507812 C852.888022,106.276046 852.988933,106.874998 852.865234,107.304688 C852.741536,107.734377 852.477867,108.059895 852.074219,108.28125 C850.902338,108.932295 849.65235,109.453123 848.324219,109.84375 C846.996087,110.234377 845.635424,110.429688 844.242188,110.429688 C842.731763,110.429688 841.367845,110.195315 840.150391,109.726562 C838.932937,109.25781 837.894536,108.60352 837.035156,107.763672 C836.175777,106.923824 835.511721,105.924485 835.042969,104.765625 C834.574216,103.606765 834.339844,102.343757 834.339844,100.976562 C834.339844,99.5833264 834.577472,98.3072975 835.052734,97.1484375 C835.527997,95.9895775 836.185543,94.9934937 837.025391,94.1601562 C837.865239,93.3268188 838.851557,92.6790388 839.984375,92.2167969 C841.117193,91.754555 842.341139,91.5234375 843.65625,91.5234375 C844.710943,91.5234375 845.606116,91.7089825 846.341797,92.0800781 C847.077478,92.4511737 847.673175,93.0273398 848.128906,93.8085938 L848.128906,92.7539062 C848.128906,92.3111957 848.317706,91.9954437 848.695312,91.8066406 C849.072919,91.6178376 849.678381,91.5234375 850.511719,91.5234375 C850.928388,91.5234375 851.273436,91.5462237 851.546875,91.5917969 C851.820314,91.63737 852.035155,91.7089839 852.191406,91.8066406 C852.347657,91.9042974 852.458333,92.0312492 852.523438,92.1875 C852.588542,92.3437508 852.621094,92.532551 852.621094,92.7539062 L852.621094,99.0234375 C852.621094,99.466148 852.425783,99.7819001 852.035156,99.9707031 C851.644529,100.159506 850.980473,100.253906 850.042969,100.253906 C849.574216,100.253906 849.193361,100.23112 848.900391,100.185547 C848.60742,100.139974 848.373048,100.06836 848.197266,99.9707031 C848.021483,99.8730464 847.901042,99.7460945 847.835938,99.5898438 C847.787109,99.4726557 847.756592,99.3371585 847.744385,99.18335 L847.738281,99.0234375 C847.738281,98.6197896 847.666667,98.2356789 847.523438,97.8710938 C847.380208,97.5065086 847.162111,97.180991 846.869141,96.8945312 C846.57617,96.6080715 846.211591,96.3802092 845.775391,96.2109375 C845.339191,96.0416658 844.828128,95.9570312 844.242188,95.9570312 C843.539059,95.9570312 842.897789,96.0742176 842.318359,96.3085938 C841.738929,96.5429699 841.247398,96.8815082 840.84375,97.3242188 C840.440102,97.7669293 840.127605,98.2975229 839.90625,98.9160156 C839.684895,99.5345083 839.574219,100.22135 839.574219,100.976562 C839.574219,101.744796 839.684895,102.434893 839.90625,103.046875 C840.127605,103.658857 840.440102,104.186196 840.84375,104.628906 C841.247398,105.071617 841.738929,105.410155 842.318359,105.644531 C842.897789,105.878907 843.539059,105.996094 844.242188,105.996094 C845.283859,105.996094 846.325516,105.83008 847.367188,105.498047 C848.408859,105.166014 849.411454,104.720055 850.375,104.160156 Z M858.96875,97.3242188 C858.747395,97.3242188 858.558595,97.291667 858.402344,97.2265625 C858.246093,97.161458 858.119141,97.050782 858.021484,96.8945312 C857.923828,96.7382805 857.852214,96.526694 857.806641,96.2597656 C857.761067,95.9928372 857.738281,95.6510437 857.738281,95.234375 C857.738281,94.8177063 857.761067,94.4726576 857.806641,94.1992188 C857.852214,93.9257799 857.923828,93.7109383 858.021484,93.5546875 C858.119141,93.3984367 858.246093,93.2877607 858.402344,93.2226562 C858.558595,93.1575518 858.747395,93.125 858.96875,93.125 L862.738281,93.125 L862.738281,87.6171875 C862.738281,87.174477 862.933592,86.8587249 863.324219,86.6699219 C863.714846,86.4811188 864.378902,86.3867188 865.316406,86.3867188 C865.785159,86.3867188 866.166014,86.409505 866.458984,86.4550781 C866.751955,86.5006513 866.986327,86.5722651 867.162109,86.6699219 C867.337892,86.7675786 867.458333,86.8945305 867.523438,87.0507812 C867.588542,87.207032 867.621094,87.3958322 867.621094,87.6171875 L867.621094,93.125 L874.867188,93.125 C875.088543,93.125 875.277343,93.1575518 875.433594,93.2226562 C875.589845,93.2877607 875.716796,93.3984367 875.814453,93.5546875 C875.91211,93.7109383 875.983724,93.9257799 876.029297,94.1992188 C876.07487,94.4726576 876.097656,94.8177063 876.097656,95.234375 C876.097656,95.6510437 876.07487,95.9928372 876.029297,96.2597656 C875.983724,96.526694 875.91211,96.7382805 875.814453,96.8945312 C875.716796,97.050782 875.589845,97.161458 875.433594,97.2265625 C875.277343,97.291667 875.088543,97.3242188 874.867188,97.3242188 L867.621094,97.3242188 L867.621094,102.753906 C867.621094,103.886719 867.839191,104.710284 868.275391,105.224609 C868.711591,105.738935 869.333329,105.996094 870.140625,105.996094 C870.466147,105.996094 870.827472,105.953776 871.224609,105.869141 C871.621747,105.784505 872.028644,105.670574 872.445312,105.527344 C872.861981,105.384114 873.291664,105.221355 873.734375,105.039062 C874.177086,104.85677 874.613279,104.66797 875.042969,104.472656 C875.238281,104.38151 875.430338,104.326172 875.619141,104.306641 C875.807944,104.287109 875.990233,104.319661 876.166016,104.404297 C876.341798,104.488933 876.511067,104.638671 876.673828,104.853516 C876.836589,105.06836 876.996093,105.371092 877.152344,105.761719 C877.464845,106.529952 877.572266,107.109373 877.474609,107.5 C877.376953,107.890627 877.113283,108.190103 876.683594,108.398438 C875.498692,108.997399 874.323574,109.485675 873.158203,109.863281 C871.992833,110.240887 870.843756,110.429688 869.710938,110.429688 C867.43228,110.429688 865.700527,109.804694 864.515625,108.554688 C863.330723,107.304681 862.738281,105.455741 862.738281,103.007812 L862.738281,97.3242188 L858.96875,97.3242188 Z M882.035156,95.9570312 C881.813801,95.9570312 881.625001,95.9309898 881.46875,95.8789062 C881.312499,95.8268227 881.185547,95.7259122 881.087891,95.5761719 C880.990234,95.4264315 880.91862,95.2213555 880.873047,94.9609375 C880.827474,94.7005195 880.804688,94.3619812 880.804688,93.9453125 C880.804688,93.5286438 880.827474,93.1901055 880.873047,92.9296875 C880.91862,92.6692695 880.990234,92.4674486 881.087891,92.3242188 C881.185547,92.1809889 881.312499,92.0833336 881.46875,92.03125 C881.625001,91.9791664 881.813801,91.953125 882.035156,91.953125 L887.191406,91.953125 C887.634117,91.953125 887.949869,92.0475251 888.138672,92.2363281 C888.327475,92.4251312 888.421875,92.7408832 888.421875,93.1835938 L888.421875,102.910156 C888.421875,103.873703 888.587889,104.628904 888.919922,105.175781 C889.251955,105.722659 889.847652,105.996094 890.707031,105.996094 C891.292972,105.996094 891.849607,105.810549 892.376953,105.439453 C892.9043,105.068358 893.36979,104.570316 893.773438,103.945312 C894.177085,103.320309 894.499348,102.594405 894.740234,101.767578 C894.981121,100.940751 895.101562,100.065109 895.101562,99.140625 L895.101562,95.9570312 L893.011719,95.9570312 C892.790363,95.9570312 892.601563,95.9309898 892.445312,95.8789062 C892.289062,95.8268227 892.16211,95.7259122 892.064453,95.5761719 C891.966796,95.4264315 891.895183,95.2213555 891.849609,94.9609375 C891.804036,94.7005195 891.78125,94.3619812 891.78125,93.9453125 C891.78125,93.5286438 891.804036,93.1901055 891.849609,92.9296875 C891.895183,92.6692695 891.966796,92.4674486 892.064453,92.3242188 C892.16211,92.1809889 892.289062,92.0833336 892.445312,92.03125 C892.601563,91.9791664 892.790363,91.953125 893.011719,91.953125 L898.753906,91.953125 C899.196617,91.953125 899.512369,92.0475251 899.701172,92.2363281 C899.889975,92.4251312 899.984375,92.7408832 899.984375,93.1835938 L899.984375,105.996094 L901.488281,105.996094 C901.709637,105.996094 901.898437,106.022135 902.054688,106.074219 C902.210938,106.126302 902.33789,106.223958 902.435547,106.367188 C902.533204,106.510417 902.604817,106.712238 902.650391,106.972656 C902.695964,107.233074 902.71875,107.571613 902.71875,107.988281 C902.71875,108.40495 902.695964,108.743488 902.650391,109.003906 C902.604817,109.264324 902.533204,109.4694 902.435547,109.619141 C902.33789,109.768881 902.210938,109.869791 902.054688,109.921875 C901.898437,109.973959 901.709637,110 901.488281,110 L897.113281,110 C896.670571,110 896.354819,109.9056 896.166016,109.716797 C895.977213,109.527994 895.882812,109.212242 895.882812,108.769531 L895.882812,105.9375 C894.97135,107.52605 893.975266,108.671871 892.894531,109.375 C891.813797,110.078129 890.661464,110.429688 889.4375,110.429688 C888.539058,110.429688 887.725264,110.279949 886.996094,109.980469 C886.266923,109.680988 885.64844,109.257815 885.140625,108.710938 C884.63281,108.16406 884.238934,107.496749 883.958984,106.708984 C883.679035,105.92122 883.539062,105.039067 883.539062,104.0625 L883.539062,95.9570312 L882.035156,95.9570312 Z M910.394531,95.9570312 L908.109375,95.9570312 C907.88802,95.9570312 907.69922,95.9309898 907.542969,95.8789062 C907.386718,95.8268227 907.259766,95.7291674 907.162109,95.5859375 C907.064453,95.4427076 906.992839,95.2408867 906.947266,94.9804688 C906.901692,94.7200508 906.878906,94.3815125 906.878906,93.9648438 C906.878906,93.548175 906.901692,93.2096367 906.947266,92.9492188 C906.992839,92.6888008 907.064453,92.4837247 907.162109,92.3339844 C907.259766,92.184244 907.386718,92.0833336 907.542969,92.03125 C907.69922,91.9791664 907.88802,91.953125 908.109375,91.953125 L913.460938,91.953125 C913.903648,91.953125 914.2194,92.0475251 914.408203,92.2363281 C914.597006,92.4251312 914.691406,92.7408832 914.691406,93.1835938 L914.691406,97.421875 C915.680995,95.5208238 916.807285,94.0625051 918.070312,93.046875 C919.33334,92.0312449 920.615879,91.5234375 921.917969,91.5234375 C923.024745,91.5234375 924.066401,91.8880172 925.042969,92.6171875 C925.524742,92.9817727 925.804687,93.414711 925.882812,93.9160156 C925.960938,94.4173202 925.850262,95.0390588 925.550781,95.78125 C925.23828,96.5755248 924.88021,97.0996081 924.476562,97.3535156 C924.072915,97.6074231 923.662763,97.623699 923.246094,97.4023438 C922.868488,97.1940094 922.490887,97.0410161 922.113281,96.9433594 C921.735675,96.8457026 921.358075,96.796875 920.980469,96.796875 C920.225257,96.796875 919.505863,96.9791648 918.822266,97.34375 C918.138668,97.7083352 917.533206,98.2161426 917.005859,98.8671875 C916.478513,99.5182324 916.058595,100.292964 915.746094,101.191406 C915.433592,102.089848 915.277344,103.072911 915.277344,104.140625 L915.277344,105.996094 L920.882812,105.996094 C921.104168,105.996094 921.292969,106.022135 921.449219,106.074219 C921.60547,106.126302 921.732421,106.227213 921.830078,106.376953 C921.927735,106.526693 921.999349,106.73177 922.044922,106.992188 C922.090495,107.252605 922.113281,107.591144 922.113281,108.007812 C922.113281,108.424481 922.090495,108.76302 922.044922,109.023438 C921.999349,109.283855 921.927735,109.485676 921.830078,109.628906 C921.732421,109.772136 921.60547,109.869791 921.449219,109.921875 C921.292969,109.973959 921.104168,110 920.882812,110 L907.523438,110 C907.302082,110 907.113282,109.973959 906.957031,109.921875 C906.80078,109.869791 906.673829,109.772136 906.576172,109.628906 C906.478515,109.485676 906.406901,109.283855 906.361328,109.023438 C906.315755,108.76302 906.292969,108.424481 906.292969,108.007812 C906.292969,107.591144 906.315755,107.252605 906.361328,106.992188 C906.406901,106.73177 906.478515,106.526693 906.576172,106.376953 C906.673829,106.227213 906.80078,106.126302 906.957031,106.074219 C907.113282,106.022135 907.302082,105.996094 907.523438,105.996094 L910.394531,105.996094 L910.394531,95.9570312 Z M946.546875,104.921875 C946.963544,104.791666 947.308592,104.833983 947.582031,105.048828 C947.85547,105.263673 948.102863,105.768225 948.324219,106.5625 C948.428386,106.966148 948.493489,107.307941 948.519531,107.587891 C948.545573,107.86784 948.526042,108.102213 948.460938,108.291016 C948.395833,108.479819 948.288412,108.632812 948.138672,108.75 C947.988932,108.867188 947.796876,108.964843 947.5625,109.042969 C946.26041,109.472658 944.893236,109.811197 943.460938,110.058594 C942.028639,110.305991 940.609382,110.429688 939.203125,110.429688 C937.744784,110.429688 936.449224,110.195315 935.316406,109.726562 C934.183588,109.25781 933.229822,108.60352 932.455078,107.763672 C931.680335,106.923824 931.091148,105.924485 930.6875,104.765625 C930.283852,103.606765 930.082031,102.343757 930.082031,100.976562 C930.082031,99.6093682 930.303383,98.3496151 930.746094,97.1972656 C931.188804,96.0449161 931.830074,95.0488323 932.669922,94.2089844 C933.50977,93.3691364 934.52864,92.7115909 935.726562,92.2363281 C936.924485,91.7610653 938.278638,91.5234375 939.789062,91.5234375 C941.312508,91.5234375 942.65364,91.774086 943.8125,92.2753906 C944.97136,92.7766952 945.938147,93.4733028 946.712891,94.3652344 C947.487634,95.2571659 948.073566,96.3183532 948.470703,97.5488281 C948.867841,98.779303 949.066406,100.11718 949.066406,101.5625 C949.066406,102.005211 948.972006,102.317707 948.783203,102.5 C948.5944,102.682293 948.278648,102.773438 947.835938,102.773438 L935.296875,102.773438 C935.557293,103.82813 936.05208,104.628904 936.78125,105.175781 C937.51042,105.722659 938.447911,105.996094 939.59375,105.996094 C940.648443,105.996094 941.745437,105.914714 942.884766,105.751953 C944.024094,105.589192 945.244785,105.312502 946.546875,104.921875 Z M943.96875,98.9648438 L935.375,98.9648438 C935.66146,97.9492137 936.172522,97.1940129 936.908203,96.6992188 C937.643884,96.2044246 938.604161,95.9570312 939.789062,95.9570312 C940.921881,95.9570312 941.846351,96.2239557 942.5625,96.7578125 C943.278649,97.2916693 943.747395,98.0273391 943.96875,98.9648438 Z" id="Infrastructure" fill="#15A5CB" fill-rule="nonzero"></path>
            <g id="buildSwiftOn" fill-rule="nonzero">
                <use fill="#000000" xlink:href="#path-1"></use>
                <use fill="#15A5CB" xlink:href="#path-1"></use>
            </g>
            <g id="ARM" fill-rule="nonzero">
                <use fill="#000000" xlink:href="#path-2"></use>
                <use fill="#0080B0" xlink:href="#path-2"></use>
            </g>
            <g id="cortex-a" transform="translate(622.000000, 128.000000)">
                <polygon id="Shape" fill="url(#linearGradient-3)" fill-rule="nonzero" opacity="0.65" points="0 33.4972454 34 53 68 33.4972454 34 14"></polygon>
                <path d="M34,6.42960035 L67.2681018,25.4972461 L34,44.5648919 L0.759621659,25.4972461 L34,6.42960035 L34,6.42960035 Z M34,6 L0,25.4972461 L34,45 L68,25.4972461 L34,6 Z" id="Shape" fill="#A7E5EF" fill-rule="nonzero"></path>
                <path d="M0.382707994,26.6765818 L33.8114192,45.9758003 L34.0055465,46.0867152 L34.1996737,45.9758003 L67.6172918,26.6765818 L67.6172918,28.151752 L34.0055465,47.5563397 L0.382707994,28.1462062 L0.382707994,26.6765818 L0.382707994,26.6765818 Z M68,26.0110915 L34.0055465,45.648601 L0,26 L0,28.3403075 L34.0055465,48 L68,28.3403075 L68,26 L68,26.0110915 Z" id="Shape" fill="#FFFFFF" fill-rule="nonzero"></path>
                <polygon id="Shape" fill="url(#linearGradient-4)" fill-rule="nonzero" opacity="0.8" points="1 19.5 34.4972475 39 68 19.5 34.4972475 0"></polygon>
                <path d="M22.4033623,16.5042664 L23.458894,16 L28,18.2742414 L26.9386687,18.7785078 L26.4688991,18.5415026 C26.478323,18.9771628 26.1854842,19.3750031 25.7265472,19.5500354 C24.2552203,20.1871105 22.5156822,20.1455169 21.0868475,19.4390968 C19.6137428,18.6978252 19.718136,17.7346764 20.9186584,17.1345994 C21.5266514,16.8476213 22.219226,16.7247273 22.9079296,16.7816129 L22.4033623,16.5042664 Z M22.2119747,18.8944891 C23.0404656,19.3105469 24.0516658,19.3445081 24.9145997,18.985257 C25.5815565,18.6524412 25.7149479,18.0977482 24.7638095,17.6237378 C23.928157,17.1793511 22.8867945,17.1449671 22.0147874,17.5329698 C21.249237,17.9162123 21.4058268,18.4860333 22.2119747,18.8944891 Z" id="Shape" fill="#FFFFFF" fill-rule="nonzero"></path>
                <path d="M25,15.5284553 L25.9439834,14.9864499 L26.3070539,15.203252 C26.2887093,15.0537133 26.3102482,14.9017852 26.3692946,14.7642276 C26.4690728,14.5749326 26.6233108,14.4232369 26.810166,14.3306233 C27.0987452,14.1601408 27.4154686,14.0479781 27.7437759,14 L28.2157677,14.7533875 C27.9953053,14.7728492 27.7813494,14.841217 27.5881743,14.9539295 C27.3910788,15.0785908 27.2147303,15.2140922 27.2251037,15.4417344 C27.2251037,15.7669377 27.629668,15.9837398 27.8993776,16.1626016 L30,17.4308943 L29.0560166,18 L25,15.5284553 Z" id="Shape" fill="#FFFFFF" fill-rule="nonzero"></path>
                <path d="M28,13.7368419 L28.9806034,13.2037425 L29.3685345,13.4149705 C29.3346317,13.0581954 29.5528008,12.7221812 29.9073276,12.5851459 C30.4331354,12.3273166 31.0354873,12.2389123 31.6206896,12.3336839 C31.4698276,11.876023 31.8793104,11.5239762 32.2510776,11.3278358 C32.8207903,11.0407415 33.4764339,10.9381527 34.1153017,11.0361399 C34.5683618,11.1140276 35.0027196,11.2673457 35.3976293,11.4887715 L38,12.8919296 L37.0140086,13.3948536 L34.6971983,12.1425728 C34.4358774,11.9860518 34.150678,11.8673582 33.8512931,11.790526 C33.5404808,11.7061665 33.2063512,11.7424323 32.924569,11.8911108 C32.709135,11.9686898 32.5924016,12.1866138 32.6551724,12.3940348 C32.7252155,12.6153213 33.0646552,12.8215202 33.4202586,13.0176606 L35.575431,14.1894735 L34.5948276,14.6923975 L32.3103448,13.4602337 C32.0511351,13.3022088 31.767737,13.181813 31.4698276,13.1031577 C31.1570099,13.0213463 30.8222842,13.0574668 30.5377155,13.2037425 C30.3240789,13.2831576 30.2082003,13.4994861 30.268319,13.7066665 C30.3383621,13.927953 30.6778017,14.1341519 31.0334052,14.325263 L33.1885776,15.497076 L32.2079741,16 L28,13.7368419 Z" id="Shape" fill="#FFFFFF" fill-rule="nonzero"></path>
                <path d="M30.6987483,24.1901407 C29.876177,24.1482764 29.0540791,24.2765988 28.3233797,24.560915 C27.0973829,25.0885554 27.1612369,25.9061604 28.3744628,26.4290473 C29.7319761,26.9453689 31.3398652,26.9453689 32.6973784,26.4290473 C33.2248185,26.2445909 33.5680101,25.854932 33.584949,25.4213016 L34,25.6019353 C33.8856948,26.0187165 33.5142001,26.3710143 32.9974922,26.5526387 C31.4384698,27.1491204 29.5886737,27.1491204 28.0296513,26.5526387 C26.6504049,25.9632026 26.6631757,25.0172527 28.0296513,24.423063 C28.7174869,24.1491735 29.4845083,24.0039769 30.2645412,24 L30.6987483,24.1901407 Z" id="Shape" fill="#FFFFFF" fill-rule="nonzero"></path>
                <path d="M36.4052478,24.2954857 C37.1982507,24.6948006 37.1982507,25.3064095 36.4052478,25.7006698 C35.5249815,26.0997767 34.4750185,26.0997767 33.5947522,25.7006698 C32.8017493,25.3064095 32.8017493,24.689746 33.5947522,24.2954857 C34.4764622,23.9015048 35.5235378,23.9015048 36.4052478,24.2954857 L36.4052478,24.2954857 Z M36.1311953,24.4370151 C35.4157654,24.1107716 34.560911,24.1107716 33.8454811,24.4370151 C33.2040816,24.7605107 33.2215743,25.2558633 33.8454811,25.579359 C34.5595988,25.902965 35.4112467,25.902965 36.1253645,25.579359 C36.8017493,25.2457541 36.7784257,24.7504014 36.1311953,24.4269058 L36.1311953,24.4370151 Z" id="Shape" fill="#FFFFFF" fill-rule="nonzero"></path>
                <path d="M35,22.5978836 L35.2673267,22.4603175 L35.6237624,22.6455026 C35.4871287,22.4708995 35.5168317,22.2698413 35.8079208,22.1164021 C35.9194463,22.0617832 36.0396233,22.0225368 36.1643564,22 L36.2712871,22.1957672 C36.1809051,22.2027621 36.0935225,22.2281013 36.0158416,22.2698413 C35.4693069,22.5502646 36.1940594,22.9312169 36.5326733,23.1058201 L38,23.8571428 L37.7326733,24 L35,22.5978836 Z" id="Shape" fill="#FFFFFF" fill-rule="nonzero"></path>
                <polygon id="Shape" fill="#FFFFFF" fill-rule="nonzero" points="37.5067264 21.6057441 40 22.8590078 39.7309417 23 37.2376682 21.7415144 36.9327354 21.8929504 36.6816144 21.767624 36.980568 21.610966 36 21.0887728 36.245142 21 37.22571 21.4960836 37.7040359 21.2558747 37.961136 21.386423"></polygon>
                <path d="M39.9652853,21.5364014 C40.6640168,21.8669766 41.5026284,21.8786746 42.2130081,21.5677554 C42.6542059,21.3430521 42.7257512,21.0451896 42.5409254,20.7682297 L42.898653,20.7211988 C43.0477063,20.961579 43.1252139,21.3639547 42.4455312,21.7088482 C41.5719605,22.1114005 40.52447,22.0956391 39.6671788,21.6670429 C38.713238,21.1862824 38.8801776,20.6219112 39.5538983,20.2613408 C40.4308403,19.8836976 41.4654977,19.9170666 42.3084023,20.350177 L39.9652853,21.5364014 Z M41.7539242,20.3606284 C41.125977,20.1116618 40.4036277,20.1231731 39.7864214,20.3919823 C39.5260553,20.4417225 39.3349634,20.6368564 39.3183409,20.8699638 C39.3017185,21.1030712 39.4636021,21.317541 39.7148758,21.3953087 L41.7539242,20.3606284 Z" id="Shape" fill="#FFFFFF" fill-rule="nonzero"></path>
                <polygon id="Shape" fill="#FFFFFF" fill-rule="nonzero" points="43.2291904 19.518 41 19.35 41.313569 19.158 43.2177879 19.314 42.9555304 18.162 43.2805017 18 43.5769671 19.338 46 19.53 45.6864308 19.722 43.5598633 19.548 43.8506271 20.808 43.5370583 21"></polygon>
                <polygon id="Shape" fill="#FFFFFF" fill-rule="nonzero" points="44 18.8125 45.6245485 18 46 18.1875 44.3754515 19"></polygon>
                <path d="M48.7845304,16.0206677 L47.0165747,16.8982512 L47.8287291,17.8521463 L47.5248617,18 L45,15 L51,16.2686805 L50.7016573,16.4165342 L48.7845304,16.0206677 Z M48.436464,15.9443561 L45.6740331,15.3529412 L46.8508286,16.7265501 L48.436464,15.9443561 Z" id="Shape" fill="#FFFFFF" fill-rule="nonzero"></path>
                <path d="M33.9972274,0.440615731 L67.2347714,19.5027539 L33.9972274,38.5593843 L0.765228739,19.5027539 L33.9972274,0.440615731 L33.9972274,0.440615731 Z M33.9972274,0 L0,19.5027539 L33.9972274,39 L68,19.5027539 L33.9972274,0 Z" id="Shape" fill="#FFFFFF" fill-rule="nonzero"></path>
                <line x1="34.5" y1="46" x2="34.5" y2="48" id="Shape" stroke="#FFFFFF" stroke-width="0.69"></line>
            </g>
            <g id="cortex-a" opacity="0.666596912" transform="translate(709.000000, 128.000000)">
                <polygon id="Shape" fill="url(#linearGradient-3)" fill-rule="nonzero" opacity="0.65" points="0 33.4972454 34 53 68 33.4972454 34 14"></polygon>
                <path d="M34,6.42960035 L67.2681018,25.4972461 L34,44.5648919 L0.759621659,25.4972461 L34,6.42960035 L34,6.42960035 Z M34,6 L0,25.4972461 L34,45 L68,25.4972461 L34,6 Z" id="Shape" fill="#A7E5EF" fill-rule="nonzero"></path>
                <path d="M0.382707994,26.6765818 L33.8114192,45.9758003 L34.0055465,46.0867152 L34.1996737,45.9758003 L67.6172918,26.6765818 L67.6172918,28.151752 L34.0055465,47.5563397 L0.382707994,28.1462062 L0.382707994,26.6765818 L0.382707994,26.6765818 Z M68,26.0110915 L34.0055465,45.648601 L0,26 L0,28.3403075 L34.0055465,48 L68,28.3403075 L68,26 L68,26.0110915 Z" id="Shape" fill="#FFFFFF" fill-rule="nonzero"></path>
                <polygon id="Shape" fill="url(#linearGradient-4)" fill-rule="nonzero" opacity="0.8" points="1 19.5 34.4972475 39 68 19.5 34.4972475 0"></polygon>
                <path d="M22.4033623,16.5042664 L23.458894,16 L28,18.2742414 L26.9386687,18.7785078 L26.4688991,18.5415026 C26.478323,18.9771628 26.1854842,19.3750031 25.7265472,19.5500354 C24.2552203,20.1871105 22.5156822,20.1455169 21.0868475,19.4390968 C19.6137428,18.6978252 19.718136,17.7346764 20.9186584,17.1345994 C21.5266514,16.8476213 22.219226,16.7247273 22.9079296,16.7816129 L22.4033623,16.5042664 Z M22.2119747,18.8944891 C23.0404656,19.3105469 24.0516658,19.3445081 24.9145997,18.985257 C25.5815565,18.6524412 25.7149479,18.0977482 24.7638095,17.6237378 C23.928157,17.1793511 22.8867945,17.1449671 22.0147874,17.5329698 C21.249237,17.9162123 21.4058268,18.4860333 22.2119747,18.8944891 Z" id="Shape" fill="#FFFFFF" fill-rule="nonzero"></path>
                <path d="M25,15.5284553 L25.9439834,14.9864499 L26.3070539,15.203252 C26.2887093,15.0537133 26.3102482,14.9017852 26.3692946,14.7642276 C26.4690728,14.5749326 26.6233108,14.4232369 26.810166,14.3306233 C27.0987452,14.1601408 27.4154686,14.0479781 27.7437759,14 L28.2157677,14.7533875 C27.9953053,14.7728492 27.7813494,14.841217 27.5881743,14.9539295 C27.3910788,15.0785908 27.2147303,15.2140922 27.2251037,15.4417344 C27.2251037,15.7669377 27.629668,15.9837398 27.8993776,16.1626016 L30,17.4308943 L29.0560166,18 L25,15.5284553 Z" id="Shape" fill="#FFFFFF" fill-rule="nonzero"></path>
                <path d="M28,13.7368419 L28.9806034,13.2037425 L29.3685345,13.4149705 C29.3346317,13.0581954 29.5528008,12.7221812 29.9073276,12.5851459 C30.4331354,12.3273166 31.0354873,12.2389123 31.6206896,12.3336839 C31.4698276,11.876023 31.8793104,11.5239762 32.2510776,11.3278358 C32.8207903,11.0407415 33.4764339,10.9381527 34.1153017,11.0361399 C34.5683618,11.1140276 35.0027196,11.2673457 35.3976293,11.4887715 L38,12.8919296 L37.0140086,13.3948536 L34.6971983,12.1425728 C34.4358774,11.9860518 34.150678,11.8673582 33.8512931,11.790526 C33.5404808,11.7061665 33.2063512,11.7424323 32.924569,11.8911108 C32.709135,11.9686898 32.5924016,12.1866138 32.6551724,12.3940348 C32.7252155,12.6153213 33.0646552,12.8215202 33.4202586,13.0176606 L35.575431,14.1894735 L34.5948276,14.6923975 L32.3103448,13.4602337 C32.0511351,13.3022088 31.767737,13.181813 31.4698276,13.1031577 C31.1570099,13.0213463 30.8222842,13.0574668 30.5377155,13.2037425 C30.3240789,13.2831576 30.2082003,13.4994861 30.268319,13.7066665 C30.3383621,13.927953 30.6778017,14.1341519 31.0334052,14.325263 L33.1885776,15.497076 L32.2079741,16 L28,13.7368419 Z" id="Shape" fill="#FFFFFF" fill-rule="nonzero"></path>
                <path d="M30.6987483,24.1901407 C29.876177,24.1482764 29.0540791,24.2765988 28.3233797,24.560915 C27.0973829,25.0885554 27.1612369,25.9061604 28.3744628,26.4290473 C29.7319761,26.9453689 31.3398652,26.9453689 32.6973784,26.4290473 C33.2248185,26.2445909 33.5680101,25.854932 33.584949,25.4213016 L34,25.6019353 C33.8856948,26.0187165 33.5142001,26.3710143 32.9974922,26.5526387 C31.4384698,27.1491204 29.5886737,27.1491204 28.0296513,26.5526387 C26.6504049,25.9632026 26.6631757,25.0172527 28.0296513,24.423063 C28.7174869,24.1491735 29.4845083,24.0039769 30.2645412,24 L30.6987483,24.1901407 Z" id="Shape" fill="#FFFFFF" fill-rule="nonzero"></path>
                <path d="M36.4052478,24.2954857 C37.1982507,24.6948006 37.1982507,25.3064095 36.4052478,25.7006698 C35.5249815,26.0997767 34.4750185,26.0997767 33.5947522,25.7006698 C32.8017493,25.3064095 32.8017493,24.689746 33.5947522,24.2954857 C34.4764622,23.9015048 35.5235378,23.9015048 36.4052478,24.2954857 L36.4052478,24.2954857 Z M36.1311953,24.4370151 C35.4157654,24.1107716 34.560911,24.1107716 33.8454811,24.4370151 C33.2040816,24.7605107 33.2215743,25.2558633 33.8454811,25.579359 C34.5595988,25.902965 35.4112467,25.902965 36.1253645,25.579359 C36.8017493,25.2457541 36.7784257,24.7504014 36.1311953,24.4269058 L36.1311953,24.4370151 Z" id="Shape" fill="#FFFFFF" fill-rule="nonzero"></path>
                <path d="M35,22.5978836 L35.2673267,22.4603175 L35.6237624,22.6455026 C35.4871287,22.4708995 35.5168317,22.2698413 35.8079208,22.1164021 C35.9194463,22.0617832 36.0396233,22.0225368 36.1643564,22 L36.2712871,22.1957672 C36.1809051,22.2027621 36.0935225,22.2281013 36.0158416,22.2698413 C35.4693069,22.5502646 36.1940594,22.9312169 36.5326733,23.1058201 L38,23.8571428 L37.7326733,24 L35,22.5978836 Z" id="Shape" fill="#FFFFFF" fill-rule="nonzero"></path>
                <polygon id="Shape" fill="#FFFFFF" fill-rule="nonzero" points="37.5067264 21.6057441 40 22.8590078 39.7309417 23 37.2376682 21.7415144 36.9327354 21.8929504 36.6816144 21.767624 36.980568 21.610966 36 21.0887728 36.245142 21 37.22571 21.4960836 37.7040359 21.2558747 37.961136 21.386423"></polygon>
                <path d="M39.9652853,21.5364014 C40.6640168,21.8669766 41.5026284,21.8786746 42.2130081,21.5677554 C42.6542059,21.3430521 42.7257512,21.0451896 42.5409254,20.7682297 L42.898653,20.7211988 C43.0477063,20.961579 43.1252139,21.3639547 42.4455312,21.7088482 C41.5719605,22.1114005 40.52447,22.0956391 39.6671788,21.6670429 C38.713238,21.1862824 38.8801776,20.6219112 39.5538983,20.2613408 C40.4308403,19.8836976 41.4654977,19.9170666 42.3084023,20.350177 L39.9652853,21.5364014 Z M41.7539242,20.3606284 C41.125977,20.1116618 40.4036277,20.1231731 39.7864214,20.3919823 C39.5260553,20.4417225 39.3349634,20.6368564 39.3183409,20.8699638 C39.3017185,21.1030712 39.4636021,21.317541 39.7148758,21.3953087 L41.7539242,20.3606284 Z" id="Shape" fill="#FFFFFF" fill-rule="nonzero"></path>
                <polygon id="Shape" fill="#FFFFFF" fill-rule="nonzero" points="43.2291904 19.518 41 19.35 41.313569 19.158 43.2177879 19.314 42.9555304 18.162 43.2805017 18 43.5769671 19.338 46 19.53 45.6864308 19.722 43.5598633 19.548 43.8506271 20.808 43.5370583 21"></polygon>
                <polygon id="Shape" fill="#FFFFFF" fill-rule="nonzero" points="44 18.8125 45.6245485 18 46 18.1875 44.3754515 19"></polygon>
                <path d="M48.7845304,16.0206677 L47.0165747,16.8982512 L47.8287291,17.8521463 L47.5248617,18 L45,15 L51,16.2686805 L50.7016573,16.4165342 L48.7845304,16.0206677 Z M48.436464,15.9443561 L45.6740331,15.3529412 L46.8508286,16.7265501 L48.436464,15.9443561 Z" id="Shape" fill="#FFFFFF" fill-rule="nonzero"></path>
                <path d="M33.9972274,0.440615731 L67.2347714,19.5027539 L33.9972274,38.5593843 L0.765228739,19.5027539 L33.9972274,0.440615731 L33.9972274,0.440615731 Z M33.9972274,0 L0,19.5027539 L33.9972274,39 L68,19.5027539 L33.9972274,0 Z" id="Shape" fill="#FFFFFF" fill-rule="nonzero"></path>
                <line x1="34.5" y1="46" x2="34.5" y2="48" id="Shape" stroke="#FFFFFF" stroke-width="0.69"></line>
            </g>
            <g id="cortex-a" transform="translate(795.000000, 128.000000)">
                <polygon id="Shape" fill="url(#linearGradient-3)" fill-rule="nonzero" opacity="0.65" points="0 33.4972454 34 53 68 33.4972454 34 14"></polygon>
                <path d="M34,6.42960035 L67.2681018,25.4972461 L34,44.5648919 L0.759621659,25.4972461 L34,6.42960035 L34,6.42960035 Z M34,6 L0,25.4972461 L34,45 L68,25.4972461 L34,6 Z" id="Shape" fill="#A7E5EF" fill-rule="nonzero"></path>
                <path d="M0.382707994,26.6765818 L33.8114192,45.9758003 L34.0055465,46.0867152 L34.1996737,45.9758003 L67.6172918,26.6765818 L67.6172918,28.151752 L34.0055465,47.5563397 L0.382707994,28.1462062 L0.382707994,26.6765818 L0.382707994,26.6765818 Z M68,26.0110915 L34.0055465,45.648601 L0,26 L0,28.3403075 L34.0055465,48 L68,28.3403075 L68,26 L68,26.0110915 Z" id="Shape" fill="#FFFFFF" fill-rule="nonzero"></path>
                <polygon id="Shape" fill="url(#linearGradient-4)" fill-rule="nonzero" opacity="0.8" points="1 19.5 34.4972475 39 68 19.5 34.4972475 0"></polygon>
                <path d="M22.4033623,16.5042664 L23.458894,16 L28,18.2742414 L26.9386687,18.7785078 L26.4688991,18.5415026 C26.478323,18.9771628 26.1854842,19.3750031 25.7265472,19.5500354 C24.2552203,20.1871105 22.5156822,20.1455169 21.0868475,19.4390968 C19.6137428,18.6978252 19.718136,17.7346764 20.9186584,17.1345994 C21.5266514,16.8476213 22.219226,16.7247273 22.9079296,16.7816129 L22.4033623,16.5042664 Z M22.2119747,18.8944891 C23.0404656,19.3105469 24.0516658,19.3445081 24.9145997,18.985257 C25.5815565,18.6524412 25.7149479,18.0977482 24.7638095,17.6237378 C23.928157,17.1793511 22.8867945,17.1449671 22.0147874,17.5329698 C21.249237,17.9162123 21.4058268,18.4860333 22.2119747,18.8944891 Z" id="Shape" fill="#FFFFFF" fill-rule="nonzero"></path>
                <path d="M25,15.5284553 L25.9439834,14.9864499 L26.3070539,15.203252 C26.2887093,15.0537133 26.3102482,14.9017852 26.3692946,14.7642276 C26.4690728,14.5749326 26.6233108,14.4232369 26.810166,14.3306233 C27.0987452,14.1601408 27.4154686,14.0479781 27.7437759,14 L28.2157677,14.7533875 C27.9953053,14.7728492 27.7813494,14.841217 27.5881743,14.9539295 C27.3910788,15.0785908 27.2147303,15.2140922 27.2251037,15.4417344 C27.2251037,15.7669377 27.629668,15.9837398 27.8993776,16.1626016 L30,17.4308943 L29.0560166,18 L25,15.5284553 Z" id="Shape" fill="#FFFFFF" fill-rule="nonzero"></path>
                <path d="M28,13.7368419 L28.9806034,13.2037425 L29.3685345,13.4149705 C29.3346317,13.0581954 29.5528008,12.7221812 29.9073276,12.5851459 C30.4331354,12.3273166 31.0354873,12.2389123 31.6206896,12.3336839 C31.4698276,11.876023 31.8793104,11.5239762 32.2510776,11.3278358 C32.8207903,11.0407415 33.4764339,10.9381527 34.1153017,11.0361399 C34.5683618,11.1140276 35.0027196,11.2673457 35.3976293,11.4887715 L38,12.8919296 L37.0140086,13.3948536 L34.6971983,12.1425728 C34.4358774,11.9860518 34.150678,11.8673582 33.8512931,11.790526 C33.5404808,11.7061665 33.2063512,11.7424323 32.924569,11.8911108 C32.709135,11.9686898 32.5924016,12.1866138 32.6551724,12.3940348 C32.7252155,12.6153213 33.0646552,12.8215202 33.4202586,13.0176606 L35.575431,14.1894735 L34.5948276,14.6923975 L32.3103448,13.4602337 C32.0511351,13.3022088 31.767737,13.181813 31.4698276,13.1031577 C31.1570099,13.0213463 30.8222842,13.0574668 30.5377155,13.2037425 C30.3240789,13.2831576 30.2082003,13.4994861 30.268319,13.7066665 C30.3383621,13.927953 30.6778017,14.1341519 31.0334052,14.325263 L33.1885776,15.497076 L32.2079741,16 L28,13.7368419 Z" id="Shape" fill="#FFFFFF" fill-rule="nonzero"></path>
                <path d="M30.6987483,24.1901407 C29.876177,24.1482764 29.0540791,24.2765988 28.3233797,24.560915 C27.0973829,25.0885554 27.1612369,25.9061604 28.3744628,26.4290473 C29.7319761,26.9453689 31.3398652,26.9453689 32.6973784,26.4290473 C33.2248185,26.2445909 33.5680101,25.854932 33.584949,25.4213016 L34,25.6019353 C33.8856948,26.0187165 33.5142001,26.3710143 32.9974922,26.5526387 C31.4384698,27.1491204 29.5886737,27.1491204 28.0296513,26.5526387 C26.6504049,25.9632026 26.6631757,25.0172527 28.0296513,24.423063 C28.7174869,24.1491735 29.4845083,24.0039769 30.2645412,24 L30.6987483,24.1901407 Z" id="Shape" fill="#FFFFFF" fill-rule="nonzero"></path>
                <path d="M36.4052478,24.2954857 C37.1982507,24.6948006 37.1982507,25.3064095 36.4052478,25.7006698 C35.5249815,26.0997767 34.4750185,26.0997767 33.5947522,25.7006698 C32.8017493,25.3064095 32.8017493,24.689746 33.5947522,24.2954857 C34.4764622,23.9015048 35.5235378,23.9015048 36.4052478,24.2954857 L36.4052478,24.2954857 Z M36.1311953,24.4370151 C35.4157654,24.1107716 34.560911,24.1107716 33.8454811,24.4370151 C33.2040816,24.7605107 33.2215743,25.2558633 33.8454811,25.579359 C34.5595988,25.902965 35.4112467,25.902965 36.1253645,25.579359 C36.8017493,25.2457541 36.7784257,24.7504014 36.1311953,24.4269058 L36.1311953,24.4370151 Z" id="Shape" fill="#FFFFFF" fill-rule="nonzero"></path>
                <path d="M35,22.5978836 L35.2673267,22.4603175 L35.6237624,22.6455026 C35.4871287,22.4708995 35.5168317,22.2698413 35.8079208,22.1164021 C35.9194463,22.0617832 36.0396233,22.0225368 36.1643564,22 L36.2712871,22.1957672 C36.1809051,22.2027621 36.0935225,22.2281013 36.0158416,22.2698413 C35.4693069,22.5502646 36.1940594,22.9312169 36.5326733,23.1058201 L38,23.8571428 L37.7326733,24 L35,22.5978836 Z" id="Shape" fill="#FFFFFF" fill-rule="nonzero"></path>
                <polygon id="Shape" fill="#FFFFFF" fill-rule="nonzero" points="37.5067264 21.6057441 40 22.8590078 39.7309417 23 37.2376682 21.7415144 36.9327354 21.8929504 36.6816144 21.767624 36.980568 21.610966 36 21.0887728 36.245142 21 37.22571 21.4960836 37.7040359 21.2558747 37.961136 21.386423"></polygon>
                <path d="M39.9652853,21.5364014 C40.6640168,21.8669766 41.5026284,21.8786746 42.2130081,21.5677554 C42.6542059,21.3430521 42.7257512,21.0451896 42.5409254,20.7682297 L42.898653,20.7211988 C43.0477063,20.961579 43.1252139,21.3639547 42.4455312,21.7088482 C41.5719605,22.1114005 40.52447,22.0956391 39.6671788,21.6670429 C38.713238,21.1862824 38.8801776,20.6219112 39.5538983,20.2613408 C40.4308403,19.8836976 41.4654977,19.9170666 42.3084023,20.350177 L39.9652853,21.5364014 Z M41.7539242,20.3606284 C41.125977,20.1116618 40.4036277,20.1231731 39.7864214,20.3919823 C39.5260553,20.4417225 39.3349634,20.6368564 39.3183409,20.8699638 C39.3017185,21.1030712 39.4636021,21.317541 39.7148758,21.3953087 L41.7539242,20.3606284 Z" id="Shape" fill="#FFFFFF" fill-rule="nonzero"></path>
                <polygon id="Shape" fill="#FFFFFF" fill-rule="nonzero" points="43.2291904 19.518 41 19.35 41.313569 19.158 43.2177879 19.314 42.9555304 18.162 43.2805017 18 43.5769671 19.338 46 19.53 45.6864308 19.722 43.5598633 19.548 43.8506271 20.808 43.5370583 21"></polygon>
                <polygon id="Shape" fill="#FFFFFF" fill-rule="nonzero" points="44 18.8125 45.6245485 18 46 18.1875 44.3754515 19"></polygon>
                <path d="M48.7845304,16.0206677 L47.0165747,16.8982512 L47.8287291,17.8521463 L47.5248617,18 L45,15 L51,16.2686805 L50.7016573,16.4165342 L48.7845304,16.0206677 Z M48.436464,15.9443561 L45.6740331,15.3529412 L46.8508286,16.7265501 L48.436464,15.9443561 Z" id="Shape" fill="#FFFFFF" fill-rule="nonzero"></path>
                <path d="M33.9972274,0.440615731 L67.2347714,19.5027539 L33.9972274,38.5593843 L0.765228739,19.5027539 L33.9972274,0.440615731 L33.9972274,0.440615731 Z M33.9972274,0 L0,19.5027539 L33.9972274,39 L68,19.5027539 L33.9972274,0 Z" id="Shape" fill="#FFFFFF" fill-rule="nonzero"></path>
                <line x1="34.5" y1="46" x2="34.5" y2="48" id="Shape" stroke="#FFFFFF" stroke-width="0.69"></line>
            </g>
            <g id="cortex-a" opacity="0.722632999" transform="translate(882.000000, 128.000000)">
                <polygon id="Shape" fill="url(#linearGradient-3)" fill-rule="nonzero" opacity="0.65" points="0 33.4972454 34 53 68 33.4972454 34 14"></polygon>
                <path d="M34,6.42960035 L67.2681018,25.4972461 L34,44.5648919 L0.759621659,25.4972461 L34,6.42960035 L34,6.42960035 Z M34,6 L0,25.4972461 L34,45 L68,25.4972461 L34,6 Z" id="Shape" fill="#A7E5EF" fill-rule="nonzero"></path>
                <path d="M0.382707994,26.6765818 L33.8114192,45.9758003 L34.0055465,46.0867152 L34.1996737,45.9758003 L67.6172918,26.6765818 L67.6172918,28.151752 L34.0055465,47.5563397 L0.382707994,28.1462062 L0.382707994,26.6765818 L0.382707994,26.6765818 Z M68,26.0110915 L34.0055465,45.648601 L0,26 L0,28.3403075 L34.0055465,48 L68,28.3403075 L68,26 L68,26.0110915 Z" id="Shape" fill="#FFFFFF" fill-rule="nonzero"></path>
                <polygon id="Shape" fill="url(#linearGradient-4)" fill-rule="nonzero" opacity="0.8" points="1 19.5 34.4972475 39 68 19.5 34.4972475 0"></polygon>
                <path d="M22.4033623,16.5042664 L23.458894,16 L28,18.2742414 L26.9386687,18.7785078 L26.4688991,18.5415026 C26.478323,18.9771628 26.1854842,19.3750031 25.7265472,19.5500354 C24.2552203,20.1871105 22.5156822,20.1455169 21.0868475,19.4390968 C19.6137428,18.6978252 19.718136,17.7346764 20.9186584,17.1345994 C21.5266514,16.8476213 22.219226,16.7247273 22.9079296,16.7816129 L22.4033623,16.5042664 Z M22.2119747,18.8944891 C23.0404656,19.3105469 24.0516658,19.3445081 24.9145997,18.985257 C25.5815565,18.6524412 25.7149479,18.0977482 24.7638095,17.6237378 C23.928157,17.1793511 22.8867945,17.1449671 22.0147874,17.5329698 C21.249237,17.9162123 21.4058268,18.4860333 22.2119747,18.8944891 Z" id="Shape" fill="#FFFFFF" fill-rule="nonzero"></path>
                <path d="M25,15.5284553 L25.9439834,14.9864499 L26.3070539,15.203252 C26.2887093,15.0537133 26.3102482,14.9017852 26.3692946,14.7642276 C26.4690728,14.5749326 26.6233108,14.4232369 26.810166,14.3306233 C27.0987452,14.1601408 27.4154686,14.0479781 27.7437759,14 L28.2157677,14.7533875 C27.9953053,14.7728492 27.7813494,14.841217 27.5881743,14.9539295 C27.3910788,15.0785908 27.2147303,15.2140922 27.2251037,15.4417344 C27.2251037,15.7669377 27.629668,15.9837398 27.8993776,16.1626016 L30,17.4308943 L29.0560166,18 L25,15.5284553 Z" id="Shape" fill="#FFFFFF" fill-rule="nonzero"></path>
                <path d="M28,13.7368419 L28.9806034,13.2037425 L29.3685345,13.4149705 C29.3346317,13.0581954 29.5528008,12.7221812 29.9073276,12.5851459 C30.4331354,12.3273166 31.0354873,12.2389123 31.6206896,12.3336839 C31.4698276,11.876023 31.8793104,11.5239762 32.2510776,11.3278358 C32.8207903,11.0407415 33.4764339,10.9381527 34.1153017,11.0361399 C34.5683618,11.1140276 35.0027196,11.2673457 35.3976293,11.4887715 L38,12.8919296 L37.0140086,13.3948536 L34.6971983,12.1425728 C34.4358774,11.9860518 34.150678,11.8673582 33.8512931,11.790526 C33.5404808,11.7061665 33.2063512,11.7424323 32.924569,11.8911108 C32.709135,11.9686898 32.5924016,12.1866138 32.6551724,12.3940348 C32.7252155,12.6153213 33.0646552,12.8215202 33.4202586,13.0176606 L35.575431,14.1894735 L34.5948276,14.6923975 L32.3103448,13.4602337 C32.0511351,13.3022088 31.767737,13.181813 31.4698276,13.1031577 C31.1570099,13.0213463 30.8222842,13.0574668 30.5377155,13.2037425 C30.3240789,13.2831576 30.2082003,13.4994861 30.268319,13.7066665 C30.3383621,13.927953 30.6778017,14.1341519 31.0334052,14.325263 L33.1885776,15.497076 L32.2079741,16 L28,13.7368419 Z" id="Shape" fill="#FFFFFF" fill-rule="nonzero"></path>
                <path d="M30.6987483,24.1901407 C29.876177,24.1482764 29.0540791,24.2765988 28.3233797,24.560915 C27.0973829,25.0885554 27.1612369,25.9061604 28.3744628,26.4290473 C29.7319761,26.9453689 31.3398652,26.9453689 32.6973784,26.4290473 C33.2248185,26.2445909 33.5680101,25.854932 33.584949,25.4213016 L34,25.6019353 C33.8856948,26.0187165 33.5142001,26.3710143 32.9974922,26.5526387 C31.4384698,27.1491204 29.5886737,27.1491204 28.0296513,26.5526387 C26.6504049,25.9632026 26.6631757,25.0172527 28.0296513,24.423063 C28.7174869,24.1491735 29.4845083,24.0039769 30.2645412,24 L30.6987483,24.1901407 Z" id="Shape" fill="#FFFFFF" fill-rule="nonzero"></path>
                <path d="M36.4052478,24.2954857 C37.1982507,24.6948006 37.1982507,25.3064095 36.4052478,25.7006698 C35.5249815,26.0997767 34.4750185,26.0997767 33.5947522,25.7006698 C32.8017493,25.3064095 32.8017493,24.689746 33.5947522,24.2954857 C34.4764622,23.9015048 35.5235378,23.9015048 36.4052478,24.2954857 L36.4052478,24.2954857 Z M36.1311953,24.4370151 C35.4157654,24.1107716 34.560911,24.1107716 33.8454811,24.4370151 C33.2040816,24.7605107 33.2215743,25.2558633 33.8454811,25.579359 C34.5595988,25.902965 35.4112467,25.902965 36.1253645,25.579359 C36.8017493,25.2457541 36.7784257,24.7504014 36.1311953,24.4269058 L36.1311953,24.4370151 Z" id="Shape" fill="#FFFFFF" fill-rule="nonzero"></path>
                <path d="M35,22.5978836 L35.2673267,22.4603175 L35.6237624,22.6455026 C35.4871287,22.4708995 35.5168317,22.2698413 35.8079208,22.1164021 C35.9194463,22.0617832 36.0396233,22.0225368 36.1643564,22 L36.2712871,22.1957672 C36.1809051,22.2027621 36.0935225,22.2281013 36.0158416,22.2698413 C35.4693069,22.5502646 36.1940594,22.9312169 36.5326733,23.1058201 L38,23.8571428 L37.7326733,24 L35,22.5978836 Z" id="Shape" fill="#FFFFFF" fill-rule="nonzero"></path>
                <polygon id="Shape" fill="#FFFFFF" fill-rule="nonzero" points="37.5067264 21.6057441 40 22.8590078 39.7309417 23 37.2376682 21.7415144 36.9327354 21.8929504 36.6816144 21.767624 36.980568 21.610966 36 21.0887728 36.245142 21 37.22571 21.4960836 37.7040359 21.2558747 37.961136 21.386423"></polygon>
                <path d="M39.9652853,21.5364014 C40.6640168,21.8669766 41.5026284,21.8786746 42.2130081,21.5677554 C42.6542059,21.3430521 42.7257512,21.0451896 42.5409254,20.7682297 L42.898653,20.7211988 C43.0477063,20.961579 43.1252139,21.3639547 42.4455312,21.7088482 C41.5719605,22.1114005 40.52447,22.0956391 39.6671788,21.6670429 C38.713238,21.1862824 38.8801776,20.6219112 39.5538983,20.2613408 C40.4308403,19.8836976 41.4654977,19.9170666 42.3084023,20.350177 L39.9652853,21.5364014 Z M41.7539242,20.3606284 C41.125977,20.1116618 40.4036277,20.1231731 39.7864214,20.3919823 C39.5260553,20.4417225 39.3349634,20.6368564 39.3183409,20.8699638 C39.3017185,21.1030712 39.4636021,21.317541 39.7148758,21.3953087 L41.7539242,20.3606284 Z" id="Shape" fill="#FFFFFF" fill-rule="nonzero"></path>
                <polygon id="Shape" fill="#FFFFFF" fill-rule="nonzero" points="43.2291904 19.518 41 19.35 41.313569 19.158 43.2177879 19.314 42.9555304 18.162 43.2805017 18 43.5769671 19.338 46 19.53 45.6864308 19.722 43.5598633 19.548 43.8506271 20.808 43.5370583 21"></polygon>
                <polygon id="Shape" fill="#FFFFFF" fill-rule="nonzero" points="44 18.8125 45.6245485 18 46 18.1875 44.3754515 19"></polygon>
                <path d="M48.7845304,16.0206677 L47.0165747,16.8982512 L47.8287291,17.8521463 L47.5248617,18 L45,15 L51,16.2686805 L50.7016573,16.4165342 L48.7845304,16.0206677 Z M48.436464,15.9443561 L45.6740331,15.3529412 L46.8508286,16.7265501 L48.436464,15.9443561 Z" id="Shape" fill="#FFFFFF" fill-rule="nonzero"></path>
                <path d="M33.9972274,0.440615731 L67.2347714,19.5027539 L33.9972274,38.5593843 L0.765228739,19.5027539 L33.9972274,0.440615731 L33.9972274,0.440615731 Z M33.9972274,0 L0,19.5027539 L33.9972274,39 L68,19.5027539 L33.9972274,0 Z" id="Shape" fill="#FFFFFF" fill-rule="nonzero"></path>
                <line x1="34.5" y1="46" x2="34.5" y2="48" id="Shape" stroke="#FFFFFF" stroke-width="0.69"></line>
            </g>
        </g>
    </g>
</svg>